<?xml version="1.0" encoding="UTF-8"?>
<svg width="554px" height="206px" viewBox="0 0 554 206" version="1.1" xmlns="http://www.w3.org/2000/svg" xmlns:xlink="http://www.w3.org/1999/xlink">
    <title>kclea-logo-white-footer</title>
    <g id="Page-1" stroke="none" stroke-width="1" fill="none" fill-rule="evenodd">
        <g id="kclea---concept-4-copy" transform="translate(-936, -457)">
            <g id="kclea-logo-white-footer" transform="translate(936, 457)">
                <g id="Group" transform="translate(236, 32)">
                    <rect id="Rectangle" fill="#E2231A" x="-78" y="0" width="396" height="142"></rect>
                    <g id="King’s-College-Londo" transform="translate(17.4261, 15.4686)" fill="#FFFFFF" fill-rule="nonzero">
                        <polygon id="Path" points="21.4799999 30.0297519 14.52119 30.0297519 8.16595038 21.0472065 7.45586773 21.8993056 7.45586773 30.0297519 2.13024792 30.0297519 2.13024792 5.17685943 7.45586773 5.17685943 7.45586773 13.6268429 14.52119 5.17685943 21.4799999 5.17685943 11.6453553 16.893223"></polygon>
                        <path d="M23.9652891,12.2776858 L29.290909,12.2776858 L29.290909,30.0297519 L23.9652891,30.0297519 L23.9652891,12.2776858 Z M26.6636032,10.431471 C25.894347,10.431471 25.2493553,10.1770247 24.728628,9.66813214 C24.2079007,9.15923958 23.9475371,8.52608256 23.9475371,7.76866107 C23.9475371,7.0230743 24.2079007,6.39287596 24.728628,5.87806604 C25.2493553,5.36325613 25.8884296,5.10585117 26.6458511,5.10585117 C27.3914379,5.10585117 28.0216362,5.36325613 28.5364462,5.87806604 C29.0512561,6.39287596 29.308661,7.0230743 29.308661,7.76866107 C29.308661,8.52608256 29.0571734,9.15923958 28.5541982,9.66813214 C28.051223,10.1770247 27.4210247,10.431471 26.6636032,10.431471 Z" id="Shape"></path>
                        <path d="M50.0430742,18.6861817 L50.0430742,30.0297519 L44.7174543,30.0297519 L44.7174543,20.1773552 C44.7174543,19.6211238 44.5813552,19.1151899 44.3091568,18.6595536 C44.0369585,18.2039172 43.6759998,17.8429585 43.2262808,17.5766776 C42.7765618,17.3103966 42.2735866,17.1772561 41.7173552,17.1772561 C41.1611238,17.1772561 40.6551899,17.3103966 40.1995535,17.5766776 C39.7439172,17.8429585 39.3829585,18.2039172 39.1166775,18.6595536 C38.8503965,19.1151899 38.717256,19.6211238 38.717256,20.1773552 L38.717256,30.0297519 L33.3916362,30.0297519 L33.3738841,12.2776858 L38.699504,12.2776858 L38.717256,13.396066 C39.3089916,12.8871734 39.9835701,12.4907106 40.7409916,12.2066776 C41.498413,11.9226445 42.297256,11.780628 43.1375205,11.780628 C44.4156692,11.780628 45.5754709,12.0912892 46.6169254,12.7126115 C47.6583799,13.3339338 48.4897684,14.1653222 49.1110907,15.2067767 C49.732413,16.2482313 50.0430742,17.4080329 50.0430742,18.6861817 Z" id="Path"></path>
                        <path d="M65.9134212,12.2776858 L71.239041,12.2776858 L71.239041,30.2072725 C71.239041,31.5564296 70.9698013,32.7665287 70.431322,33.83757 C69.8928427,34.9086114 69.1561319,35.8228428 68.2211898,36.5802642 C67.2862476,37.3376857 66.2122476,37.9146279 64.9991898,38.3110907 C63.7861319,38.7075535 62.5050245,38.9057849 61.1558675,38.9057849 C59.9013882,38.9057849 58.700165,38.666132 57.5521981,38.1868262 C56.4042312,37.7075204 55.3805287,37.041818 54.4810907,36.1897188 C53.5816527,35.3376196 52.87157,34.3494213 52.3508427,33.2251238 L57.2149088,31.0238676 C57.4634378,31.5564296 57.7888923,32.0091072 58.1912725,32.3819006 C58.5936526,32.754694 59.049289,33.0416858 59.5581815,33.2428758 C60.0670741,33.4440659 60.5996361,33.544661 61.1558675,33.544661 C61.7712724,33.544661 62.363008,33.47957 62.9310741,33.3493882 C63.4991402,33.2192064 64.0080328,33.0180163 64.4577518,32.745818 C64.9074708,32.4736196 65.2625121,32.1274544 65.5228757,31.7073221 C65.7832394,31.2871899 65.9134212,30.7871734 65.9134212,30.2072725 L65.9134212,28.4675701 C65.3808592,29.0711403 64.7506609,29.5593221 64.0228262,29.9321155 C63.2949914,30.3049089 62.4576857,30.4913056 61.5109088,30.4913056 C60.2209253,30.4913056 59.0137849,30.248694 57.8894873,29.7634709 C56.7651898,29.2782478 55.7740328,28.6066279 54.9160163,27.7486114 C54.0579998,26.8905949 53.3863799,25.8994379 52.9011568,24.7751403 C52.4159336,23.6508428 52.1733221,22.4437023 52.1733221,21.1537189 C52.1733221,19.8637354 52.4159336,18.6565949 52.9011568,17.5322974 C53.3863799,16.4079999 54.0579998,15.4168429 54.9160163,14.5588263 C55.7740328,13.7008098 56.7651898,13.02919 57.8894873,12.5439668 C59.0137849,12.0587437 60.2209253,11.8161321 61.5109088,11.8161321 C62.4576857,11.8161321 63.2949914,12.0025288 64.0228262,12.3753222 C64.7506609,12.7481156 65.3808592,13.2362974 65.9134212,13.8398677 L65.9134212,12.2776858 Z M61.5819171,25.3787106 C62.3156691,25.3787106 62.9843303,25.1893552 63.5879005,24.8106445 C64.1914708,24.4319337 64.6707766,23.9230412 65.0258179,23.2839668 C65.3808592,22.6448924 65.5583799,21.9348098 65.5583799,21.1537189 C65.5583799,20.372628 65.3808592,19.6625453 65.0258179,19.0234709 C64.6707766,18.3843966 64.1914708,17.875504 63.5879005,17.4967933 C62.9843303,17.1180825 62.3156691,16.9287271 61.5819171,16.9287271 C60.8599997,16.9287271 60.2002146,17.1180825 59.6025617,17.4967933 C59.0049088,17.875504 58.5285617,18.3843966 58.1735204,19.0234709 C57.8184791,19.6625453 57.6409584,20.372628 57.6409584,21.1537189 C57.6409584,21.9348098 57.8184791,22.6448924 58.1735204,23.2839668 C58.5285617,23.9230412 59.0049088,24.4319337 59.6025617,24.8106445 C60.2002146,25.1893552 60.8599997,25.3787106 61.5819171,25.3787106 Z" id="Shape"></path>
                        <polygon id="Path" points="74.0793716 14.4434379 75.1799997 5.17685943 80.5056195 5.17685943 77.6297848 14.4434379"></polygon>
                        <path d="M88.8135864,30.3492891 C87.9141484,30.2664461 87.0502145,30.0711734 86.2217847,29.7634709 C85.393355,29.4557684 84.6536856,29.0356362 84.0027765,28.5030742 C83.3518674,27.9705122 82.8370575,27.3196031 82.4583467,26.5503469 L86.9318674,24.6331238 C87.0502145,24.7633056 87.2159004,24.9260329 87.4289252,25.1213056 C87.64195,25.3165783 87.9111897,25.4911403 88.2366442,25.6449916 C88.5620988,25.7988428 88.9556029,25.8757684 89.4171566,25.8757684 C89.7248591,25.8757684 90.0236855,25.843223 90.313636,25.7781321 C90.6035864,25.7130412 90.8402806,25.5976527 91.0237186,25.4319668 C91.2071566,25.2662808 91.2988756,25.035504 91.2988756,24.7396362 C91.2988756,24.4082643 91.1775698,24.1567767 90.9349583,23.9851734 C90.6923467,23.8135701 90.3994376,23.6893056 90.056231,23.61238 C89.7130244,23.5354544 89.3934872,23.4733222 89.0976194,23.4259833 C88.0443302,23.2602974 87.0354211,22.9259668 86.0708922,22.4229916 C85.1063633,21.9200164 84.3163963,21.2631899 83.7009914,20.4525123 C83.0855864,19.6418346 82.7778839,18.692099 82.7778839,17.6033057 C82.7778839,16.3843305 83.0915038,15.3310412 83.7187434,14.4434379 C84.3459831,13.5558346 85.1655368,12.8723801 86.1774046,12.3930743 C87.1892723,11.9137685 88.2810244,11.6741156 89.4526608,11.6741156 C90.8373219,11.6741156 92.1184293,11.9581487 93.295983,12.5262148 C94.4735368,13.0942809 95.4410244,13.9108759 96.1984458,14.9759999 L92.0089583,17.4612891 C91.8669417,17.2837685 91.6923798,17.1032891 91.4852723,16.9198511 C91.2781649,16.7364131 91.0414707,16.5766445 90.7751897,16.4405453 C90.5089087,16.3044462 90.2219169,16.2186445 89.9142145,16.1831404 C89.4999996,16.1476362 89.1301649,16.1624296 88.8047103,16.2275205 C88.4792558,16.2926114 88.2218508,16.4227933 88.0324955,16.618066 C87.8431401,16.8133387 87.7484624,17.0944131 87.7484624,17.4612891 C87.7484624,17.8044957 87.9141484,18.0530247 88.2455203,18.2068759 C88.5768922,18.3607271 88.9496855,18.4731569 89.3639004,18.5441652 C89.7781153,18.6151734 90.1154046,18.692099 90.3757682,18.774942 C91.3935533,19.1063139 92.3521649,19.5382809 93.2516029,20.0708428 C94.1510409,20.6034048 94.8759169,21.2483965 95.426231,22.005818 C95.976545,22.7632395 96.23395,23.6508428 96.1984458,24.6686279 C96.1984458,25.852099 95.8434045,26.8935535 95.1333219,27.7929916 C94.4232392,28.6924296 93.5060492,29.3729254 92.3817516,29.8344792 C91.2574541,30.2960329 90.0680657,30.4676362 88.8135864,30.3492891 Z" id="Path"></path>
                        <path d="M119.240628,30.4913056 C117.560099,30.4913056 115.980165,30.156975 114.500826,29.4883139 C113.021487,28.8196527 111.722628,27.8935866 110.604247,26.7101155 C109.485867,25.5266445 108.610099,24.1567767 107.976942,22.6005122 C107.343785,21.0442478 107.027206,19.3785123 107.027206,17.6033057 C107.027206,15.8162643 107.343785,14.1446115 107.976942,12.588347 C108.610099,11.0320825 109.485867,9.66517346 110.604247,8.48761975 C111.722628,7.31006603 113.021487,6.3869586 114.500826,5.71829745 C115.980165,5.04963629 117.560099,4.71530572 119.240628,4.71530572 C121.252528,4.71530572 123.104661,5.17981811 124.797024,6.1088429 C126.489388,7.03786769 127.891801,8.27755363 129.004264,9.82790073 L124.24671,12.3841982 C123.631305,11.6741156 122.891636,11.1060495 122.027702,10.6799999 C121.163768,10.2539503 120.234743,10.0409255 119.240628,10.0409255 C118.293851,10.0409255 117.403289,10.2361983 116.568942,10.6267437 C115.734595,11.0172892 115.000842,11.5587272 114.367685,12.2510577 C113.734528,12.9433883 113.240429,13.74519 112.885388,14.6564627 C112.530347,15.5677354 112.352826,16.5500164 112.352826,17.6033057 C112.352826,18.6447602 112.530347,19.6211238 112.885388,20.5323966 C113.240429,21.4436693 113.734528,22.2454709 114.367685,22.9378015 C115.000842,23.6301321 115.734595,24.1745288 116.568942,24.5709916 C117.403289,24.9674544 118.293851,25.1656858 119.240628,25.1656858 C120.234743,25.1656858 121.163768,24.9497023 122.027702,24.5177354 C122.891636,24.0857684 123.631305,23.5088263 124.24671,22.7869089 L129.004264,25.3787106 C127.891801,26.917223 126.489388,28.1539502 124.797024,29.0888924 C123.104661,30.0238345 121.252528,30.4913056 119.240628,30.4913056 Z" id="Path"></path>
                        <path d="M139.122942,30.4913056 C137.489751,30.4913056 136.001537,30.0711734 134.658297,29.2309089 C133.315057,28.3906445 132.244016,27.2633883 131.445173,25.8491403 C130.64633,24.4348924 130.246909,22.8697519 130.246909,21.1537189 C130.246909,19.8519007 130.477685,18.6358842 130.939239,17.5056693 C131.400793,16.3754544 132.036908,15.3813387 132.847586,14.5233222 C133.658264,13.6653057 134.602082,12.9936858 135.679041,12.5084627 C136.755999,12.0232396 137.903966,11.780628 139.122942,11.780628 C140.756132,11.780628 142.244346,12.2007602 143.587586,13.0410247 C144.930826,13.8812891 146.001867,15.011504 146.80071,16.4316693 C147.599553,17.8518346 147.998975,19.4258511 147.998975,21.1537189 C147.998975,22.4437023 147.768198,23.6508428 147.306644,24.7751403 C146.84509,25.8994379 146.208975,26.8905949 145.398297,27.7486114 C144.587619,28.6066279 143.64676,29.2782478 142.575718,29.7634709 C141.504677,30.248694 140.353751,30.4913056 139.122942,30.4913056 Z M139.122942,25.1656858 C139.79752,25.1656858 140.404049,24.9822478 140.942528,24.6153717 C141.481008,24.2484957 141.904099,23.7603139 142.211801,23.1508263 C142.519503,22.5413387 142.673355,21.8756362 142.673355,21.1537189 C142.673355,20.4081321 142.510627,19.7276362 142.185173,19.1122313 C141.859718,18.4968263 141.427751,18.0086445 140.889272,17.6476858 C140.350793,17.2867271 139.762016,17.1062478 139.122942,17.1062478 C138.460198,17.1062478 137.859586,17.2926445 137.321107,17.6654379 C136.782627,18.0382313 136.356578,18.5323304 136.042958,19.1477354 C135.729338,19.7631404 135.572528,20.4318015 135.572528,21.1537189 C135.572528,21.9111403 135.735256,22.5916362 136.06071,23.1952065 C136.386165,23.7987767 136.818132,24.2780825 137.356611,24.6331238 C137.89509,24.9881651 138.483867,25.1656858 139.122942,25.1656858 Z" id="Shape"></path>
                        <polygon id="Path" points="150.306743 30.0297519 150.306743 3.40165283 155.632363 3.40165283 155.632363 30.0297519"></polygon>
                        <polygon id="Path" points="159.892859 30.0297519 159.892859 3.40165283 165.218479 3.40165283 165.218479 30.0297519"></polygon>
                        <path d="M176.934842,30.4913056 C175.301652,30.4913056 173.813437,30.0711734 172.470198,29.2309089 C171.126958,28.3906445 170.055917,27.2604296 169.257074,25.8402643 C168.458231,24.420099 168.058809,22.8519998 168.058809,21.1359668 C168.058809,19.8459833 168.289586,18.6358842 168.75114,17.5056693 C169.212693,16.3754544 169.848809,15.3813387 170.659487,14.5233222 C171.470165,13.6653057 172.413983,12.9936858 173.490941,12.5084627 C174.5679,12.0232396 175.715867,11.780628 176.934842,11.780628 C178.355007,11.780628 179.653867,12.0912892 180.831421,12.7126115 C182.008974,13.3339338 183.00309,14.1741982 183.813768,15.2334048 C184.624445,16.2926114 185.201388,17.4849585 185.544594,18.8104461 C185.887801,20.1359337 185.923305,21.5028428 185.651107,22.9111734 L173.810479,22.9111734 C173.976165,23.3253883 174.198065,23.7011403 174.476181,24.0384296 C174.754297,24.3757188 175.097503,24.6449585 175.505801,24.8461486 C175.914098,25.0473387 176.390445,25.1538511 176.934842,25.1656858 C177.455569,25.1775205 177.937834,25.0650907 178.381636,24.8283965 C178.825437,24.5917023 179.213024,24.2721651 179.544396,23.869785 L184.976528,25.1301817 C184.254611,26.7041982 183.177652,27.991223 181.745652,28.991256 C180.313652,29.9912891 178.710049,30.4913056 176.934842,30.4913056 Z M173.615206,19.0057189 L180.272231,19.0057189 C180.106545,18.4968263 179.858016,18.0471073 179.526644,17.6565619 C179.195272,17.2660164 178.807685,16.9583139 178.363883,16.7334544 C177.920082,16.5085949 177.443735,16.3961652 176.934842,16.3961652 C176.437784,16.3961652 175.967355,16.5085949 175.523553,16.7334544 C175.079751,16.9583139 174.695123,17.2660164 174.369669,17.6565619 C174.044214,18.0471073 173.792726,18.4968263 173.615206,19.0057189 Z" id="Shape"></path>
                        <path d="M201.326181,12.2776858 L206.651801,12.2776858 L206.651801,30.2072725 C206.651801,31.5564296 206.382561,32.7665287 205.844082,33.83757 C205.305602,34.9086114 204.568892,35.8228428 203.633949,36.5802642 C202.699007,37.3376857 201.625007,37.9146279 200.41195,38.3110907 C199.198892,38.7075535 197.917784,38.9057849 196.568627,38.9057849 C195.314148,38.9057849 194.112925,38.666132 192.964958,38.1868262 C191.816991,37.7075204 190.793288,37.041818 189.89385,36.1897188 C188.994412,35.3376196 188.28433,34.3494213 187.763602,33.2251238 L192.627669,31.0238676 C192.876197,31.5564296 193.201652,32.0091072 193.604032,32.3819006 C194.006412,32.754694 194.462049,33.0416858 194.970941,33.2428758 C195.479834,33.4440659 196.012396,33.544661 196.568627,33.544661 C197.184032,33.544661 197.775768,33.47957 198.343834,33.3493882 C198.9119,33.2192064 199.420792,33.0180163 199.870511,32.745818 C200.32023,32.4736196 200.675272,32.1274544 200.935635,31.7073221 C201.195999,31.2871899 201.326181,30.7871734 201.326181,30.2072725 L201.326181,28.4675701 C200.793619,29.0711403 200.163421,29.5593221 199.435586,29.9321155 C198.707751,30.3049089 197.870445,30.4913056 196.923669,30.4913056 C195.633685,30.4913056 194.426545,30.248694 193.302247,29.7634709 C192.17795,29.2782478 191.186793,28.6066279 190.328776,27.7486114 C189.470759,26.8905949 188.79914,25.8994379 188.313917,24.7751403 C187.828693,23.6508428 187.586082,22.4437023 187.586082,21.1537189 C187.586082,19.8637354 187.828693,18.6565949 188.313917,17.5322974 C188.79914,16.4079999 189.470759,15.4168429 190.328776,14.5588263 C191.186793,13.7008098 192.17795,13.02919 193.302247,12.5439668 C194.426545,12.0587437 195.633685,11.8161321 196.923669,11.8161321 C197.870445,11.8161321 198.707751,12.0025288 199.435586,12.3753222 C200.163421,12.7481156 200.793619,13.2362974 201.326181,13.8398677 L201.326181,12.2776858 Z M196.994677,25.3787106 C197.728429,25.3787106 198.39709,25.1893552 199.00066,24.8106445 C199.604231,24.4319337 200.083536,23.9230412 200.438578,23.2839668 C200.793619,22.6448924 200.97114,21.9348098 200.97114,21.1537189 C200.97114,20.372628 200.793619,19.6625453 200.438578,19.0234709 C200.083536,18.3843966 199.604231,17.875504 199.00066,17.4967933 C198.39709,17.1180825 197.728429,16.9287271 196.994677,16.9287271 C196.272759,16.9287271 195.612974,17.1180825 195.015321,17.4967933 C194.417669,17.875504 193.941321,18.3843966 193.58628,19.0234709 C193.231239,19.6625453 193.053718,20.372628 193.053718,21.1537189 C193.053718,21.9348098 193.231239,22.6448924 193.58628,23.2839668 C193.941321,23.9230412 194.417669,24.4319337 195.015321,24.8106445 C195.612974,25.1893552 196.272759,25.3787106 196.994677,25.3787106 Z" id="Shape"></path>
                        <path d="M218.190644,30.4913056 C216.557454,30.4913056 215.069239,30.0711734 213.725999,29.2309089 C212.382759,28.3906445 211.311718,27.2604296 210.512875,25.8402643 C209.714032,24.420099 209.314611,22.8519998 209.314611,21.1359668 C209.314611,19.8459833 209.545387,18.6358842 210.006941,17.5056693 C210.468495,16.3754544 211.104611,15.3813387 211.915288,14.5233222 C212.725966,13.6653057 213.669784,12.9936858 214.746743,12.5084627 C215.823702,12.0232396 216.971668,11.780628 218.190644,11.780628 C219.610809,11.780628 220.909668,12.0912892 222.087222,12.7126115 C223.264776,13.3339338 224.258892,14.1741982 225.069569,15.2334048 C225.880247,16.2926114 226.457189,17.4849585 226.800396,18.8104461 C227.143602,20.1359337 227.179106,21.5028428 226.906908,22.9111734 L215.06628,22.9111734 C215.231966,23.3253883 215.453867,23.7011403 215.731982,24.0384296 C216.010098,24.3757188 216.353305,24.6449585 216.761602,24.8461486 C217.1699,25.0473387 217.646247,25.1538511 218.190644,25.1656858 C218.711371,25.1775205 219.193635,25.0650907 219.637437,24.8283965 C220.081239,24.5917023 220.468825,24.2721651 220.800197,23.869785 L226.23233,25.1301817 C225.510412,26.7041982 224.433454,27.991223 223.001454,28.991256 C221.569454,29.9912891 219.96585,30.4913056 218.190644,30.4913056 Z M214.871007,19.0057189 L221.528032,19.0057189 C221.362346,18.4968263 221.113817,18.0471073 220.782445,17.6565619 C220.451073,17.2660164 220.063487,16.9583139 219.619685,16.7334544 C219.175883,16.5085949 218.699536,16.3961652 218.190644,16.3961652 C217.693586,16.3961652 217.223156,16.5085949 216.779354,16.7334544 C216.335553,16.9583139 215.950925,17.2660164 215.62547,17.6565619 C215.300016,18.0471073 215.048528,18.4968263 214.871007,19.0057189 Z" id="Shape"></path>
                        <polygon id="Path" points="2.13024792 65.0595038 2.13024792 40.2066113 5.11259502 40.2066113 5.11259502 62.0771567 16.2431404 62.0771567 16.2431404 65.0595038"></polygon>
                        <path d="M26.2375536,65.5210575 C24.6043635,65.5210575 23.1161487,65.1009253 21.772909,64.2606608 C20.4296693,63.4203963 19.358628,62.2931401 18.559785,60.8788922 C17.7609421,59.4646443 17.3615206,57.8995038 17.3615206,56.1834707 C17.3615206,54.8816526 17.5922974,53.665636 18.0538512,52.5354212 C18.5154049,51.4052063 19.1515206,50.4110906 19.9621983,49.5530741 C20.7728759,48.6950576 21.7166941,48.0234377 22.7936528,47.5382146 C23.8706115,47.0529914 25.0185784,46.8103799 26.2375536,46.8103799 C27.8707437,46.8103799 29.3589585,47.2305121 30.7021982,48.0707766 C32.0454379,48.911041 33.1164792,50.0412559 33.9153222,51.4614212 C34.7141651,52.8815865 35.1135866,54.455603 35.1135866,56.1834707 C35.1135866,57.4734542 34.8828098,58.6805947 34.421256,59.8048922 C33.9597023,60.9291897 33.3235866,61.9203468 32.5129089,62.7783633 C31.7022313,63.6363798 30.7613718,64.3079996 29.6903304,64.7932228 C28.6192891,65.2784459 27.4683635,65.5210575 26.2375536,65.5210575 Z M26.2375536,62.5387104 C27.3500164,62.5387104 28.3530081,62.2458013 29.2465288,61.6599831 C30.1400495,61.0741649 30.8442147,60.2989914 31.3590247,59.3344625 C31.8738346,58.3699335 32.1312395,57.319603 32.1312395,56.1834707 C32.1312395,55.0236691 31.8679172,53.9585451 31.3412726,52.9880989 C30.814628,52.0176526 30.107504,51.242479 29.2199007,50.6625782 C28.3322974,50.0826774 27.3381817,49.792727 26.2375536,49.792727 C25.1250908,49.792727 24.1250577,50.0856361 23.2374544,50.6714542 C22.3498511,51.2572724 21.6456859,52.0354046 21.1249586,53.0058509 C20.6042313,53.9762972 20.3438677,55.0355038 20.3438677,56.1834707 C20.3438677,57.3669418 20.6101487,58.4409418 21.1427106,59.4054707 C21.6752726,60.3699997 22.3912726,61.1333385 23.2907106,61.6954872 C24.1901487,62.257636 25.1724296,62.5387104 26.2375536,62.5387104 Z" id="Shape"></path>
                        <path d="M53.771008,54.0177187 L53.771008,65.0595038 L50.7886609,65.0595038 L50.7886609,54.6745451 C50.7886609,53.7751071 50.5697188,52.9585121 50.1318345,52.22476 C49.6939502,51.491008 49.108132,50.9081485 48.3743799,50.4761815 C47.6406279,50.0442146 46.8240328,49.8282311 45.9245948,49.8282311 C45.0369915,49.8282311 44.2233552,50.0442146 43.4836858,50.4761815 C42.7440163,50.9081485 42.1552395,51.491008 41.7173552,52.22476 C41.2794709,52.9585121 41.0605287,53.7751071 41.0605287,54.6745451 L41.0605287,65.0595038 L38.0781816,65.0595038 L38.0781816,47.3074377 L41.0605287,47.3074377 L41.0605287,49.526446 C41.6877684,48.6980162 42.480694,48.0382311 43.4393056,47.5470906 C44.3979172,47.0559501 45.4393717,46.8103799 46.5636692,46.8103799 C47.8891568,46.8103799 49.099256,47.1328757 50.1939667,47.7778675 C51.2886775,48.4228592 52.1585287,49.2897518 52.8035204,50.3785452 C53.4485122,51.4673385 53.771008,52.6803964 53.771008,54.0177187 Z" id="Path"></path>
                        <path d="M71.2567931,38.4314047 L74.2391402,38.4314047 L74.2391402,65.0595038 L71.2567931,65.0595038 L71.2567931,62.0416525 C70.6532228,63.0831071 69.8425451,63.9233715 68.82476,64.5624459 C67.8069749,65.2015203 66.6116691,65.5210575 65.2388427,65.5210575 C63.9488592,65.5210575 62.7417187,65.2784459 61.6174212,64.7932228 C60.4931237,64.3079996 59.5019667,63.6363798 58.6439501,62.7783633 C57.7859336,61.9203468 57.1143138,60.9291897 56.6290907,59.8048922 C56.1438675,58.6805947 55.9012559,57.4734542 55.9012559,56.1834707 C55.9012559,54.8934873 56.1438675,53.6833881 56.6290907,52.5531732 C57.1143138,51.4229584 57.7859336,50.4288427 58.6439501,49.5708261 C59.5019667,48.7128096 60.4931237,48.0411898 61.6174212,47.5559667 C62.7417187,47.0707435 63.9488592,46.8281319 65.2388427,46.8281319 C66.6116691,46.8281319 67.8069749,47.1476691 68.82476,47.7867435 C69.8425451,48.4258179 70.6532228,49.2660823 71.2567931,50.3075369 L71.2567931,38.4314047 Z M65.2743468,62.6274707 C66.4459832,62.6274707 67.4608096,62.340479 68.3188261,61.7664955 C69.1768427,61.192512 69.8395865,60.4143798 70.3070575,59.4320988 C70.7745286,58.4498178 71.0082641,57.3669418 71.0082641,56.1834707 C71.0082641,54.9763303 70.7715699,53.8845782 70.2981815,52.9082146 C69.8247931,51.9318509 69.1590906,51.1566774 68.3010741,50.5826939 C67.4430575,50.0087104 66.4341485,49.7217187 65.2743468,49.7217187 C64.1027105,49.7217187 63.0405452,50.0116691 62.087851,50.5915699 C61.1351567,51.1714708 60.3747766,51.949603 59.8067105,52.9259666 C59.2386444,53.9023303 58.9546113,54.988165 58.9546113,56.1834707 C58.9546113,57.3787765 59.2445617,58.4646112 59.8244625,59.4409749 C60.4043634,60.4173385 61.1736196,61.192512 62.1322311,61.7664955 C63.0908427,62.340479 64.1382146,62.6274707 65.2743468,62.6274707 Z" id="Shape"></path>
                        <path d="M86.1507765,65.5210575 C84.5175864,65.5210575 83.0293715,65.1009253 81.6861319,64.2606608 C80.3428922,63.4203963 79.2718509,62.2931401 78.4730079,60.8788922 C77.6741649,59.4646443 77.2747435,57.8995038 77.2747435,56.1834707 C77.2747435,54.8816526 77.5055203,53.665636 77.967074,52.5354212 C78.4286277,51.4052063 79.0647434,50.4110906 79.8754211,49.5530741 C80.6860988,48.6950576 81.629917,48.0234377 82.7068757,47.5382146 C83.7838343,47.0529914 84.9318013,46.8103799 86.1507765,46.8103799 C87.7839665,46.8103799 89.2721814,47.2305121 90.6154211,48.0707766 C91.9586607,48.911041 93.0297021,50.0412559 93.828545,51.4614212 C94.627388,52.8815865 95.0268095,54.455603 95.0268095,56.1834707 C95.0268095,57.4734542 94.7960326,58.6805947 94.3344789,59.8048922 C93.8729252,60.9291897 93.2368095,61.9203468 92.4261318,62.7783633 C91.6154541,63.6363798 90.6745946,64.3079996 89.6035533,64.7932228 C88.532512,65.2784459 87.3815864,65.5210575 86.1507765,65.5210575 Z M86.1507765,62.5387104 C87.2632393,62.5387104 88.266231,62.2458013 89.1597517,61.6599831 C90.0532723,61.0741649 90.7574376,60.2989914 91.2722475,59.3344625 C91.7870574,58.3699335 92.0444624,57.319603 92.0444624,56.1834707 C92.0444624,55.0236691 91.7811401,53.9585451 91.2544955,52.9880989 C90.7278508,52.0176526 90.0207269,51.242479 89.1331236,50.6625782 C88.2455203,50.0826774 87.2514046,49.792727 86.1507765,49.792727 C85.0383137,49.792727 84.0382806,50.0856361 83.1506773,50.6714542 C82.263074,51.2572724 81.5589087,52.0354046 81.0381815,53.0058509 C80.5174542,53.9762972 80.2570905,55.0355038 80.2570905,56.1834707 C80.2570905,57.3669418 80.5233715,58.4409418 81.0559335,59.4054707 C81.5884955,60.3699997 82.3044955,61.1333385 83.2039335,61.6954872 C84.1033715,62.257636 85.0856525,62.5387104 86.1507765,62.5387104 Z" id="Shape"></path>
                        <path d="M113.684231,54.0177187 L113.684231,65.0595038 L110.701884,65.0595038 L110.701884,54.6745451 C110.701884,53.7751071 110.482942,52.9585121 110.045057,52.22476 C109.607173,51.491008 109.021355,50.9081485 108.287603,50.4761815 C107.553851,50.0442146 106.737256,49.8282311 105.837818,49.8282311 C104.950214,49.8282311 104.136578,50.0442146 103.396909,50.4761815 C102.657239,50.9081485 102.068462,51.491008 101.630578,52.22476 C101.192694,52.9585121 100.973752,53.7751071 100.973752,54.6745451 L100.973752,65.0595038 L97.9914045,65.0595038 L97.9914045,47.3074377 L100.973752,47.3074377 L100.973752,49.526446 C101.600991,48.6980162 102.393917,48.0382311 103.352528,47.5470906 C104.31114,47.0559501 105.352595,46.8103799 106.476892,46.8103799 C107.80238,46.8103799 109.012479,47.1328757 110.10719,47.7778675 C111.2019,48.4228592 112.071752,49.2897518 112.716743,50.3785452 C113.361735,51.4673385 113.684231,52.6803964 113.684231,54.0177187 Z" id="Path"></path>
                        <polygon id="Path" points="125.755636 65.0595038 125.755636 40.2066113 141.004661 40.2066113 141.004661 43.1889584 128.737983 43.1889584 128.737983 50.2542807 138.785652 50.2542807 138.785652 53.2366278 128.737983 53.2366278 128.737983 62.0771567 141.004661 62.0771567 141.004661 65.0595038"></polygon>
                        <path d="M160.602941,54.0177187 L160.602941,65.0595038 L157.620594,65.0595038 L157.620594,54.6745451 C157.620594,53.7751071 157.401652,52.9585121 156.963768,52.22476 C156.525884,51.491008 155.940065,50.9081485 155.206313,50.4761815 C154.472561,50.0442146 153.655966,49.8282311 152.756528,49.8282311 C151.868925,49.8282311 151.055289,50.0442146 150.315619,50.4761815 C149.57595,50.9081485 148.987173,51.491008 148.549289,52.22476 C148.111404,52.9585121 147.892462,53.7751071 147.892462,54.6745451 L147.892462,65.0595038 L144.910115,65.0595038 L144.910115,47.3074377 L147.892462,47.3074377 L147.892462,49.526446 C148.519702,48.6980162 149.312627,48.0382311 150.271239,47.5470906 C151.229851,47.0559501 152.271305,46.8103799 153.395603,46.8103799 C154.72109,46.8103799 155.931189,47.1328757 157.0259,47.7778675 C158.120611,48.4228592 158.990462,49.2897518 159.635454,50.3785452 C160.280446,51.4673385 160.602941,52.6803964 160.602941,54.0177187 Z" id="Path"></path>
                        <path d="M177.662677,47.3074377 L180.645024,47.3074377 L180.645024,65.6275699 C180.645024,66.7992062 180.393536,67.8909583 179.890561,68.9028261 C179.387586,69.9146938 178.710049,70.7963798 177.85795,71.5478839 C177.00585,72.299388 176.035404,72.8852062 174.946611,73.3053384 C173.857817,73.7254707 172.721685,73.9355368 171.538214,73.9355368 C170.307404,73.9355368 169.118016,73.6603798 167.970049,73.1100657 C166.822082,72.5597517 165.81909,71.8259996 164.961074,70.9088095 C164.103057,69.9916194 163.484693,68.9649583 163.105983,67.8288261 L165.839801,66.5861814 C166.06466,67.4027765 166.469999,68.1394872 167.055817,68.7963137 C167.641636,69.4531401 168.328049,69.9738674 169.115057,70.3584955 C169.902065,70.7431236 170.709784,70.9354376 171.538214,70.9354376 C172.319305,70.9354376 173.073768,70.7993384 173.801603,70.5271401 C174.529437,70.2549418 175.186264,69.8791897 175.772082,69.3998839 C176.3579,68.9205781 176.819454,68.3584294 177.156743,67.7134376 C177.494032,67.0684459 177.662677,66.3731566 177.662677,65.6275699 L177.662677,62.0949087 C177.059107,63.1126939 176.263222,63.9381649 175.275024,64.5713219 C174.286826,65.204479 173.1359,65.5210575 171.822247,65.5210575 C170.567768,65.5210575 169.390214,65.2784459 168.289586,64.7932228 C167.188958,64.3079996 166.224429,63.6363798 165.395999,62.7783633 C164.56757,61.9203468 163.91666,60.9291897 163.443272,59.8048922 C162.969884,58.6805947 162.733189,57.4734542 162.733189,56.1834707 C162.733189,54.8934873 162.969884,53.6833881 163.443272,52.5531732 C163.91666,51.4229584 164.56757,50.4288427 165.395999,49.5708261 C166.224429,48.7128096 167.188958,48.0411898 168.289586,47.5559667 C169.390214,47.0707435 170.567768,46.8281319 171.822247,46.8281319 C173.1359,46.8281319 174.286826,47.1417518 175.275024,47.7689914 C176.263222,48.3962311 177.059107,49.2246609 177.662677,50.2542807 L177.662677,47.3074377 Z M171.839999,62.6274707 C172.987966,62.6274707 173.985041,62.3316029 174.831222,61.7398674 C175.677404,61.1481319 176.331272,60.3611236 176.792826,59.3788426 C177.254379,58.3965616 177.485156,57.3314377 177.485156,56.1834707 C177.485156,54.9999997 177.251421,53.9200823 176.78395,52.9437187 C176.316479,51.9673551 175.659652,51.1862642 174.81347,50.600446 C173.967288,50.0146278 172.976131,49.7217187 171.839999,49.7217187 C170.727536,49.7217187 169.709751,50.0116691 168.786644,50.5915699 C167.863536,51.1714708 167.132743,51.949603 166.594264,52.9259666 C166.055784,53.9023303 165.786545,54.988165 165.786545,56.1834707 C165.786545,57.3787765 166.061702,58.4646112 166.612016,59.4409749 C167.16233,60.4173385 167.896082,61.192512 168.813272,61.7664955 C169.730462,62.340479 170.739371,62.6274707 171.839999,62.6274707 Z" id="Shape"></path>
                        <path d="M184.674743,47.3074377 L187.65709,47.3074377 L187.65709,65.0595038 L184.674743,65.0595038 L184.674743,47.3074377 Z M186.201421,44.413851 C185.728032,44.413851 185.331569,44.2599997 185.012032,43.9522972 C184.692495,43.6445948 184.532726,43.2599667 184.532726,42.798413 C184.532726,42.3368592 184.692495,41.9522311 185.012032,41.6445287 C185.331569,41.3368262 185.722115,41.1829749 186.183669,41.1829749 C186.645222,41.1829749 187.035768,41.3368262 187.355305,41.6445287 C187.674842,41.9522311 187.834611,42.3368592 187.834611,42.798413 C187.834611,43.2599667 187.677801,43.6445948 187.364181,43.9522972 C187.050561,44.2599997 186.662974,44.413851 186.201421,44.413851 Z" id="Shape"></path>
                        <path d="M207.539404,54.0177187 L207.539404,65.0595038 L204.557057,65.0595038 L204.557057,54.6745451 C204.557057,53.7751071 204.338115,52.9585121 203.90023,52.22476 C203.462346,51.491008 202.876528,50.9081485 202.142776,50.4761815 C201.409024,50.0442146 200.592429,49.8282311 199.692991,49.8282311 C198.805388,49.8282311 197.991751,50.0442146 197.252082,50.4761815 C196.512412,50.9081485 195.923635,51.491008 195.485751,52.22476 C195.047867,52.9585121 194.828925,53.7751071 194.828925,54.6745451 L194.828925,65.0595038 L191.846578,65.0595038 L191.846578,47.3074377 L194.828925,47.3074377 L194.828925,49.526446 C195.456164,48.6980162 196.24909,48.0382311 197.207702,47.5470906 C198.166313,47.0559501 199.207768,46.8103799 200.332065,46.8103799 C201.657553,46.8103799 202.867652,47.1328757 203.962363,47.7778675 C205.057073,48.4228592 205.926925,49.2897518 206.571916,50.3785452 C207.216908,51.4673385 207.539404,52.6803964 207.539404,54.0177187 Z" id="Path"></path>
                        <path d="M218.545685,65.5210575 C216.912495,65.5210575 215.42428,65.1009253 214.08104,64.2606608 C212.737801,63.4203963 211.666759,62.2931401 210.867916,60.8788922 C210.069073,59.4646443 209.669652,57.8995038 209.669652,56.1834707 C209.669652,54.8816526 209.900429,53.665636 210.361983,52.5354212 C210.823536,51.4052063 211.459652,50.4110906 212.27033,49.5530741 C213.081007,48.6950576 214.024825,48.0234377 215.101784,47.5382146 C216.178743,47.0529914 217.32671,46.8103799 218.545685,46.8103799 C219.883007,46.8103799 221.110859,47.0796195 222.229239,47.6180989 C223.347619,48.1565782 224.30623,48.9051237 225.105073,49.8637352 C225.903916,50.8223468 226.501569,51.9348096 226.898032,53.2011237 C227.294495,54.4674377 227.43947,55.8225121 227.332958,57.2663468 L212.847272,57.2663468 C212.989288,58.2722972 213.32066,59.1687765 213.841387,59.9557848 C214.362115,60.742793 215.027817,61.367074 215.838495,61.8286277 C216.649173,62.2901815 217.551569,62.5268757 218.545685,62.5387104 C219.610809,62.5387104 220.575338,62.2635534 221.439272,61.7132393 C222.303206,61.1629253 223.001454,60.4084625 223.534016,59.4498509 L226.569619,60.1599335 C225.859536,61.7339501 224.788495,63.0209748 223.356495,64.0210079 C221.924495,65.021041 220.320892,65.5210575 218.545685,65.5210575 Z M212.758511,54.9230741 L224.332858,54.9230741 C224.238181,53.9289584 223.918644,53.0206443 223.374247,52.1981319 C222.82985,51.3756195 222.13752,50.7158344 221.297255,50.2187766 C220.456991,49.7217187 219.539801,49.4731898 218.545685,49.4731898 C217.551569,49.4731898 216.640297,49.7158014 215.811867,50.2010245 C214.983437,50.6862476 214.299983,51.3401154 213.761503,52.1626278 C213.223024,52.9851402 212.888693,53.9052889 212.758511,54.9230741 Z" id="Shape"></path>
                        <path d="M238.037453,65.5210575 C236.404263,65.5210575 234.916049,65.1009253 233.572809,64.2606608 C232.229569,63.4203963 231.158528,62.2931401 230.359685,60.8788922 C229.560842,59.4646443 229.16142,57.8995038 229.16142,56.1834707 C229.16142,54.8816526 229.392197,53.665636 229.853751,52.5354212 C230.315305,51.4052063 230.95142,50.4110906 231.762098,49.5530741 C232.572776,48.6950576 233.516594,48.0234377 234.593553,47.5382146 C235.670511,47.0529914 236.818478,46.8103799 238.037453,46.8103799 C239.374776,46.8103799 240.602627,47.0796195 241.721007,47.6180989 C242.839387,48.1565782 243.797999,48.9051237 244.596842,49.8637352 C245.395685,50.8223468 245.993338,51.9348096 246.389801,53.2011237 C246.786263,54.4674377 246.931239,55.8225121 246.824726,57.2663468 L232.33904,57.2663468 C232.481057,58.2722972 232.812429,59.1687765 233.333156,59.9557848 C233.853883,60.742793 234.519586,61.367074 235.330263,61.8286277 C236.140941,62.2901815 237.043338,62.5268757 238.037453,62.5387104 C239.102577,62.5387104 240.067106,62.2635534 240.93104,61.7132393 C241.794974,61.1629253 242.493222,60.4084625 243.025784,59.4498509 L246.061387,60.1599335 C245.351305,61.7339501 244.280263,63.0209748 242.848263,64.0210079 C241.416263,65.021041 239.81266,65.5210575 238.037453,65.5210575 Z M232.25028,54.9230741 L243.824627,54.9230741 C243.729949,53.9289584 243.410412,53.0206443 242.866015,52.1981319 C242.321619,51.3756195 241.629288,50.7158344 240.789024,50.2187766 C239.948759,49.7217187 239.031569,49.4731898 238.037453,49.4731898 C237.043338,49.4731898 236.132065,49.7158014 235.303635,50.2010245 C234.475206,50.6862476 233.791751,51.3401154 233.253272,52.1626278 C232.714792,52.9851402 232.380462,53.9052889 232.25028,54.9230741 Z" id="Shape"></path>
                        <path d="M249.842577,65.0595038 L249.842577,47.3074377 L252.824924,47.3074377 L252.824924,49.526446 C253.452164,48.6980162 254.24509,48.0382311 255.203701,47.5470906 C256.162313,47.0559501 257.203767,46.8103799 258.328065,46.8103799 C259.014478,46.8103799 259.677222,46.8991402 260.316296,47.0766609 L259.109156,50.059008 C258.623933,49.9051567 258.150544,49.8282311 257.688991,49.8282311 C256.801387,49.8282311 255.987751,50.0442146 255.248081,50.4761815 C254.508412,50.9081485 253.919635,51.491008 253.481751,52.22476 C253.043867,52.9585121 252.824924,53.7751071 252.824924,54.6745451 L252.824924,65.0595038 L249.842577,65.0595038 Z" id="Path"></path>
                        <path d="M267.896429,65.396793 C266.937817,65.3612889 266.005834,65.1808095 265.100478,64.855355 C264.195123,64.5299005 263.402197,64.0860988 262.721701,63.5239501 C262.041205,62.9618013 261.547106,62.3138509 261.239404,61.5800988 L263.795701,60.4794707 C263.973222,60.8818509 264.292759,61.2605616 264.754313,61.615603 C265.215867,61.9706443 265.748429,62.2546773 266.351999,62.4677021 C266.955569,62.6807269 267.565057,62.7872393 268.180462,62.7872393 C268.831371,62.7872393 269.440858,62.6866443 270.008924,62.4854542 C270.576991,62.2842641 271.041503,61.9854377 271.402462,61.5889749 C271.76342,61.192512 271.9439,60.7161649 271.9439,60.1599335 C271.9439,59.568198 271.745668,59.1036856 271.349205,58.7663964 C270.952743,58.4291071 270.455685,58.1628261 269.858032,57.9675534 C269.260379,57.7722807 268.65385,57.585884 268.038445,57.4083633 C266.81947,57.1006608 265.730676,56.7308261 264.772065,56.2988592 C263.813453,55.8668922 263.058991,55.3165782 262.508676,54.647917 C261.958362,53.9792559 261.683205,53.124198 261.683205,52.0827435 C261.683205,50.9821154 261.987949,50.0294212 262.597437,49.2246609 C263.206924,48.4199005 264.008726,47.7985782 265.002842,47.3606939 C265.996957,46.9228096 267.062081,46.7038675 268.198214,46.7038675 C269.630214,46.7038675 270.937949,47.01157 272.12142,47.6269749 C273.304891,48.2423799 274.186577,49.076727 274.766478,50.1300162 L272.369949,51.5324294 C272.168759,51.1063799 271.861057,50.7306278 271.446842,50.4051733 C271.032627,50.0797187 270.559238,49.8223137 270.026676,49.6329584 C269.494114,49.443603 268.949718,49.343008 268.393486,49.3311733 C267.707073,49.3075038 267.06504,49.3962642 266.467387,49.5974542 C265.869734,49.7986443 265.390429,50.1033881 265.02947,50.5116856 C264.668511,50.9199832 264.488032,51.425917 264.488032,52.0294873 C264.488032,52.6212228 264.680346,53.0709418 265.064974,53.3786443 C265.449602,53.6863468 265.952577,53.931917 266.5739,54.1153551 C267.195222,54.2987931 267.872759,54.5088592 268.606511,54.7455534 C269.68347,55.08876 270.68942,55.4852228 271.624362,55.9349418 C272.559305,56.3846608 273.313767,56.9468096 273.887751,57.6213881 C274.461734,58.2959666 274.742809,59.1303137 274.730974,60.1244294 C274.730974,61.2132228 274.405519,62.1629583 273.75461,62.973636 C273.103701,63.7843137 272.260478,64.4026773 271.224941,64.8287269 C270.189404,65.2547765 269.0799,65.4441319 267.896429,65.396793 Z" id="Path"></path>
                        <polygon id="Path" points="276.364164 49.4731898 277.464792 40.2066113 280.447139 40.2066113 278.352395 49.4731898"></polygon>
                        <path d="M10.4559669,75.2363632 L14.0596363,75.2363632 L23.0954379,100.089256 L19.9355702,100.089256 L18.0893553,95.0121648 L6.4262479,95.0121648 L4.5977851,100.089256 L1.42016528,100.089256 L10.4559669,75.2363632 Z M7.526876,92.0298177 L16.9887272,92.0298177 L12.2489256,79.0530574 L7.526876,92.0298177 Z" id="Shape"></path>
                        <path d="M30.8708428,100.426545 C29.9122313,100.391041 28.9802478,100.210561 28.0748924,99.8851069 C27.1695371,99.5596523 26.3766115,99.1158507 25.6961156,98.5537019 C25.0156197,97.9915532 24.5215206,97.3436028 24.2138181,96.6098507 L26.7701156,95.5092226 C26.9476362,95.9116028 27.2671734,96.2903135 27.7287271,96.6453548 C28.1902809,97.0003962 28.7228428,97.2844292 29.3264131,97.497454 C29.9299833,97.7104788 30.5394709,97.8169912 31.1548759,97.8169912 C31.805785,97.8169912 32.4152726,97.7163962 32.9833387,97.5152061 C33.5514048,97.314016 34.0159172,97.0151895 34.3768759,96.6187267 C34.7378346,96.2222639 34.9183139,95.7459168 34.9183139,95.1896854 C34.9183139,94.5979499 34.7200825,94.1334375 34.3236197,93.7961482 C33.9271569,93.458859 33.430099,93.192578 32.8324461,92.9973053 C32.2347932,92.8020325 31.6282643,92.6156358 31.0128594,92.4381152 C29.7938842,92.1304127 28.7050908,91.760578 27.7464792,91.3286111 C26.7878676,90.8966441 26.0334048,90.3463301 25.4830908,89.6776689 C24.9327767,89.0090078 24.6576197,88.1539499 24.6576197,87.1124954 C24.6576197,86.0118673 24.9623635,85.0591731 25.5718511,84.2544127 C26.1813387,83.4496524 26.9831404,82.8283301 27.9772561,82.3904458 C28.9713718,81.9525615 30.0364957,81.7336194 31.172628,81.7336194 C32.604628,81.7336194 33.9123635,82.0413218 35.0958346,82.6567268 C36.2793056,83.2721318 37.1609916,84.1064789 37.7408924,85.1597681 L35.3443635,86.5621813 C35.1431734,86.1361317 34.8354709,85.7603797 34.421256,85.4349251 C34.0070412,85.1094706 33.5336527,84.8520656 33.0010908,84.6627103 C32.4685288,84.4733549 31.9241321,84.3727598 31.3679007,84.3609251 C30.6814875,84.3372557 30.0394544,84.426016 29.4418015,84.6272061 C28.8441486,84.8283962 28.3648428,85.13314 28.0038842,85.5414375 C27.6429255,85.949735 27.4624462,86.4556689 27.4624462,87.0592392 C27.4624462,87.6509747 27.6547602,88.1006937 28.0393883,88.4083962 C28.4240164,88.7160987 28.9269916,88.9616689 29.5483139,89.1451069 C30.1696362,89.3285449 30.8471734,89.5386111 31.5809255,89.7753053 C32.6578841,90.1185119 33.6638346,90.5149747 34.5987767,90.9646937 C35.5337188,91.4144127 36.2881817,91.9765615 36.8621651,92.65114 C37.4361486,93.3257185 37.717223,94.1600656 37.7053883,95.1541813 C37.7053883,96.2429747 37.3799337,97.1927102 36.7290246,98.0033879 C36.0781155,98.8140656 35.2348924,99.4324292 34.1993552,99.8584788 C33.163818,100.284528 32.0543139,100.473884 30.8708428,100.426545 Z" id="Path"></path>
                        <path d="M46.1731238,100.426545 C45.2145122,100.391041 44.2825287,100.210561 43.3771734,99.8851069 C42.471818,99.5596523 41.6788924,99.1158507 40.9983965,98.5537019 C40.3179006,97.9915532 39.8238015,97.3436028 39.516099,96.6098507 L42.0723965,95.5092226 C42.2499172,95.9116028 42.5694544,96.2903135 43.0310081,96.6453548 C43.4925618,97.0003962 44.0251238,97.2844292 44.628694,97.497454 C45.2322643,97.7104788 45.8417519,97.8169912 46.4571568,97.8169912 C47.1080659,97.8169912 47.7175535,97.7163962 48.2856196,97.5152061 C48.8536857,97.314016 49.3181981,97.0151895 49.6791568,96.6187267 C50.0401155,96.2222639 50.2205948,95.7459168 50.2205948,95.1896854 C50.2205948,94.5979499 50.0223634,94.1334375 49.6259006,93.7961482 C49.2294378,93.458859 48.7323799,93.192578 48.1347271,92.9973053 C47.5370742,92.8020325 46.9305452,92.6156358 46.3151403,92.4381152 C45.0961651,92.1304127 44.0073717,91.760578 43.0487601,91.3286111 C42.0901486,90.8966441 41.3356858,90.3463301 40.7853717,89.6776689 C40.2350577,89.0090078 39.9599006,88.1539499 39.9599006,87.1124954 C39.9599006,86.0118673 40.2646444,85.0591731 40.874132,84.2544127 C41.4836196,83.4496524 42.2854213,82.8283301 43.279537,82.3904458 C44.2736527,81.9525615 45.3387767,81.7336194 46.4749089,81.7336194 C47.9069089,81.7336194 49.2146444,82.0413218 50.3981155,82.6567268 C51.5815865,83.2721318 52.4632725,84.1064789 53.0431733,85.1597681 L50.6466444,86.5621813 C50.4454543,86.1361317 50.1377518,85.7603797 49.723537,85.4349251 C49.3093221,85.1094706 48.8359337,84.8520656 48.3033717,84.6627103 C47.7708097,84.4733549 47.226413,84.3727598 46.6701816,84.3609251 C45.9837684,84.3372557 45.3417353,84.426016 44.7440824,84.6272061 C44.1464296,84.8283962 43.6671238,85.13314 43.3061651,85.5414375 C42.9452064,85.949735 42.7647271,86.4556689 42.7647271,87.0592392 C42.7647271,87.6509747 42.9570411,88.1006937 43.3416692,88.4083962 C43.7262973,88.7160987 44.2292725,88.9616689 44.8505948,89.1451069 C45.4719171,89.3285449 46.1494543,89.5386111 46.8832064,89.7753053 C47.9601651,90.1185119 48.9661155,90.5149747 49.9010576,90.9646937 C50.8359998,91.4144127 51.5904626,91.9765615 52.164446,92.65114 C52.7384295,93.3257185 53.0195039,94.1600656 53.0076692,95.1541813 C53.0076692,96.2429747 52.6822146,97.1927102 52.0313056,98.0033879 C51.3803965,98.8140656 50.5371733,99.4324292 49.5016361,99.8584788 C48.466099,100.284528 47.3565948,100.473884 46.1731238,100.426545 Z" id="Path"></path>
                        <path d="M63.712165,100.550809 C62.0789749,100.550809 60.5907601,100.130677 59.2475204,99.2904127 C57.9042807,98.4501482 56.8332394,97.322892 56.0343964,95.9086441 C55.2355535,94.4943962 54.836132,92.9292557 54.836132,91.2132226 C54.836132,89.9114045 55.0669088,88.6953879 55.5284626,87.5651731 C55.9900163,86.4349582 56.626132,85.4408425 57.4368097,84.582826 C58.2474873,83.7248094 59.1913055,83.0531896 60.2682642,82.5679665 C61.3452229,82.0827433 62.4931898,81.8401318 63.712165,81.8401318 C65.3453551,81.8401318 66.8335699,82.260264 68.1768096,83.1005284 C69.5200493,83.9407929 70.5910906,85.0710078 71.3899336,86.4911731 C72.1887765,87.9113383 72.588198,89.4853549 72.588198,91.2132226 C72.588198,92.5032061 72.3574212,93.7103466 71.8958674,94.8346441 C71.4343137,95.9589416 70.798198,96.9500986 69.9875203,97.8081152 C69.1768427,98.6661317 68.2359832,99.3377515 67.1649418,99.8229747 C66.0939005,100.308198 64.9429749,100.550809 63.712165,100.550809 Z M63.712165,97.5684623 C64.8246278,97.5684623 65.8276195,97.2755532 66.7211402,96.689735 C67.6146609,96.1039168 68.3188261,95.3287433 68.8336361,94.3642143 C69.348446,93.3996854 69.6058509,92.3493549 69.6058509,91.2132226 C69.6058509,90.053421 69.3425286,88.988297 68.815884,88.0178507 C68.2892394,87.0474045 67.5821154,86.2722309 66.6945121,85.6923301 C65.8069088,85.1124293 64.8127931,84.8224789 63.712165,84.8224789 C62.5997022,84.8224789 61.5996691,85.1153879 60.7120658,85.7012061 C59.8244625,86.2870243 59.1202973,87.0651565 58.59957,88.0356028 C58.0788427,89.0060491 57.8184791,90.0652557 57.8184791,91.2132226 C57.8184791,92.3966937 58.0847601,93.4706937 58.617322,94.4352226 C59.149884,95.3997515 59.865884,96.1630904 60.765322,96.7252391 C61.6647601,97.2873879 62.647041,97.5684623 63.712165,97.5684623 Z" id="Shape"></path>
                        <path d="M87.6597021,95.4027102 L90.322512,96.8406276 C89.5177517,97.9649251 88.4970079,98.8643631 87.2602806,99.5389416 C86.0235533,100.21352 84.6832723,100.550809 83.2394376,100.550809 C81.6062476,100.550809 80.1180327,100.130677 78.774793,99.2904127 C77.4315534,98.4501482 76.3605121,97.322892 75.5616691,95.9086441 C74.7628261,94.4943962 74.3634046,92.9292557 74.3634046,91.2132226 C74.3634046,89.9114045 74.5941815,88.6953879 75.0557352,87.5651731 C75.5172889,86.4349582 76.1534046,85.4408425 76.9640823,84.582826 C77.77476,83.7248094 78.7185782,83.0531896 79.7955368,82.5679665 C80.8724955,82.0827433 82.0204624,81.8401318 83.2394376,81.8401318 C84.6832723,81.8401318 86.0235533,82.177421 87.2602806,82.8519995 C88.4970079,83.526578 89.5177517,84.4319334 90.322512,85.5680656 L87.6597021,87.005983 C87.091636,86.307735 86.4170575,85.7692557 85.6359666,85.390545 C84.8548756,85.0118342 84.0560327,84.8224789 83.2394376,84.8224789 C82.1388095,84.8224789 81.1417352,85.1153879 80.2482145,85.7012061 C79.3546939,86.2870243 78.6475699,87.0651565 78.1268426,88.0356028 C77.6061154,89.0060491 77.3457517,90.0652557 77.3457517,91.2132226 C77.3457517,92.3611896 77.609074,93.4174375 78.1357187,94.3819664 C78.6623633,95.3464953 79.3724459,96.1187102 80.2659666,96.698611 C81.1594872,97.2785119 82.1506443,97.5684623 83.2394376,97.5684623 C84.1152062,97.5684623 84.9377186,97.3672722 85.7069748,96.964892 C86.476231,96.5625119 87.1271401,96.0417846 87.6597021,95.4027102 Z" id="Path"></path>
                        <path d="M93.1095864,82.3371896 L96.0919335,82.3371896 L96.0919335,100.089256 L93.1095864,100.089256 L93.1095864,82.3371896 Z M94.636264,79.4436028 C94.1628756,79.4436028 93.7664128,79.2897516 93.4468756,78.9820491 C93.1273384,78.6743467 92.9675698,78.2897186 92.9675698,77.8281648 C92.9675698,77.3666111 93.1273384,76.981983 93.4468756,76.6742805 C93.7664128,76.3665781 94.1569583,76.2127268 94.618512,76.2127268 C95.0800657,76.2127268 95.4706111,76.3665781 95.7901483,76.6742805 C96.1096855,76.981983 96.2694541,77.3666111 96.2694541,77.8281648 C96.2694541,78.2897186 96.1126442,78.6743467 95.7990244,78.9820491 C95.4854045,79.2897516 95.0978178,79.4436028 94.636264,79.4436028 Z" id="Shape"></path>
                        <path d="M114.394314,82.3371896 L117.376661,82.3371896 L117.376661,100.089256 L114.394314,100.089256 L114.270049,97.0891565 C113.713818,98.1187763 112.94752,98.9531234 111.971157,99.5921978 C110.994793,100.231272 109.832033,100.550809 108.482876,100.550809 C107.181057,100.550809 105.962082,100.305239 104.82595,99.8140986 C103.689818,99.3229581 102.686826,98.6424623 101.816975,97.772611 C100.947124,96.9027598 100.269586,95.8997681 99.7843632,94.7636358 C99.29914,93.6275036 99.0565285,92.4026111 99.0565285,91.0889582 C99.0565285,89.8226441 99.2932227,88.6273383 99.7666111,87.5030408 C100.24,86.3787433 100.899785,85.3935036 101.745966,84.5473218 C102.592148,83.70114 103.571471,83.0383962 104.683933,82.5590904 C105.796396,82.0797847 106.991702,81.8401318 108.269851,81.8401318 C109.666347,81.8401318 110.891239,82.168545 111.944528,82.8253714 C112.997818,83.4821979 113.849917,84.3313384 114.500826,85.3727929 L114.394314,82.3371896 Z M108.429619,97.6572226 C109.601256,97.6572226 110.616082,97.3702309 111.474099,96.7962474 C112.332115,96.2222639 112.994859,95.4441317 113.46233,94.4618507 C113.929801,93.4795697 114.163537,92.3966937 114.163537,91.2132226 C114.163537,90.0060821 113.926842,88.9143301 113.453454,87.9379664 C112.980066,86.9616028 112.314363,86.1864293 111.456347,85.6124458 C110.59833,85.0384623 109.589421,84.7514706 108.429619,84.7514706 C107.257983,84.7514706 106.192859,85.041421 105.234247,85.6213218 C104.275636,86.2012226 103.515256,86.9793549 102.953107,87.9557185 C102.390958,88.9320821 102.109884,90.0179168 102.109884,91.2132226 C102.109884,92.4085284 102.399834,93.4943631 102.979735,94.4707267 C103.559636,95.4470904 104.328892,96.2222639 105.287504,96.7962474 C106.246115,97.3702309 107.293487,97.6572226 108.429619,97.6572226 Z" id="Shape"></path>
                        <polygon id="Path" points="130.122644 85.3195367 126.092925 85.3195367 126.075173 100.089256 123.092826 100.089256 123.110578 85.3195367 120.057223 85.3195367 120.057223 82.3371896 123.110578 82.3371896 123.092826 76.7630409 126.075173 76.7630409 126.092925 82.3371896 130.122644 82.3371896"></polygon>
                        <path d="M133.140495,82.3371896 L136.122842,82.3371896 L136.122842,100.089256 L133.140495,100.089256 L133.140495,82.3371896 Z M134.667173,79.4436028 C134.193785,79.4436028 133.797322,79.2897516 133.477785,78.9820491 C133.158247,78.6743467 132.998479,78.2897186 132.998479,77.8281648 C132.998479,77.3666111 133.158247,76.981983 133.477785,76.6742805 C133.797322,76.3665781 134.187867,76.2127268 134.649421,76.2127268 C135.110975,76.2127268 135.50152,76.3665781 135.821057,76.6742805 C136.140594,76.981983 136.300363,77.3666111 136.300363,77.8281648 C136.300363,78.2897186 136.143553,78.6743467 135.829933,78.9820491 C135.516313,79.2897516 135.128727,79.4436028 134.667173,79.4436028 Z" id="Shape"></path>
                        <path d="M147.96347,100.550809 C146.33028,100.550809 144.842065,100.130677 143.498826,99.2904127 C142.155586,98.4501482 141.084545,97.322892 140.285702,95.9086441 C139.486859,94.4943962 139.087437,92.9292557 139.087437,91.2132226 C139.087437,89.9114045 139.318214,88.6953879 139.779768,87.5651731 C140.241322,86.4349582 140.877437,85.4408425 141.688115,84.582826 C142.498793,83.7248094 143.442611,83.0531896 144.51957,82.5679665 C145.596528,82.0827433 146.744495,81.8401318 147.96347,81.8401318 C149.59666,81.8401318 151.084875,82.260264 152.428115,83.1005284 C153.771355,83.9407929 154.842396,85.0710078 155.641239,86.4911731 C156.440082,87.9113383 156.839503,89.4853549 156.839503,91.2132226 C156.839503,92.5032061 156.608727,93.7103466 156.147173,94.8346441 C155.685619,95.9589416 155.049503,96.9500986 154.238826,97.8081152 C153.428148,98.6661317 152.487289,99.3377515 151.416247,99.8229747 C150.345206,100.308198 149.19428,100.550809 147.96347,100.550809 Z M147.96347,97.5684623 C149.075933,97.5684623 150.078925,97.2755532 150.972446,96.689735 C151.865966,96.1039168 152.570132,95.3287433 153.084941,94.3642143 C153.599751,93.3996854 153.857156,92.3493549 153.857156,91.2132226 C153.857156,90.053421 153.593834,88.988297 153.067189,88.0178507 C152.540545,87.0474045 151.833421,86.2722309 150.945817,85.6923301 C150.058214,85.1124293 149.064099,84.8224789 147.96347,84.8224789 C146.851008,84.8224789 145.850975,85.1153879 144.963371,85.7012061 C144.075768,86.2870243 143.371603,87.0651565 142.850875,88.0356028 C142.330148,89.0060491 142.069784,90.0652557 142.069784,91.2132226 C142.069784,92.3966937 142.336065,93.4706937 142.868627,94.4352226 C143.401189,95.3997515 144.117189,96.1630904 145.016627,96.7252391 C145.916065,97.2873879 146.898346,97.5684623 147.96347,97.5684623 Z" id="Shape"></path>
                        <path d="M175.496925,89.0474706 L175.496925,100.089256 L172.514578,100.089256 L172.514578,89.704297 C172.514578,88.804859 172.295636,87.988264 171.857751,87.2545119 C171.419867,86.5207598 170.834049,85.9379003 170.100297,85.5059334 C169.366545,85.0739665 168.54995,84.857983 167.650512,84.857983 C166.762908,84.857983 165.949272,85.0739665 165.209603,85.5059334 C164.469933,85.9379003 163.881156,86.5207598 163.443272,87.2545119 C163.005388,87.988264 162.786446,88.804859 162.786446,89.704297 L162.786446,100.089256 L159.804098,100.089256 L159.804098,82.3371896 L162.786446,82.3371896 L162.786446,84.5561979 C163.413685,83.7277681 164.206611,83.067983 165.165222,82.5768425 C166.123834,82.085702 167.165289,81.8401318 168.289586,81.8401318 C169.615074,81.8401318 170.825173,82.1626276 171.919884,82.8076194 C173.014594,83.4526111 173.884445,84.3195037 174.529437,85.408297 C175.174429,86.4970904 175.496925,87.7101483 175.496925,89.0474706 Z" id="Path"></path>
                    </g>
                </g>
                <g id="Group" transform="translate(0, 0)">
                    <g transform="translate(112.6993, 103) scale(-1, 1) translate(-112.6993, -103)">
                        <g id="fi_484613" transform="translate(141.2464, 63.2835)" fill="#E2231A">
                            <path d="M29.4820386,12.457263 L26.0235158,11.6063912 C25.8156358,10.9505194 25.5482185,10.3145012 25.2255628,9.70611278 C25.7448506,8.84139654 26.8361324,7.02141571 26.8361324,7.02141571 C27.0448957,6.6736558 26.9896573,6.22833695 26.7032776,5.94184594 L24.2050662,3.44266403 C23.9186865,3.15528933 23.4744239,3.10008841 23.1259157,3.30975765 L20.4379035,4.92095293 C19.8331669,4.60076403 19.2008701,4.33583496 18.5496109,4.12958264 L17.6990695,0.669716185 C17.6006651,0.27618134 17.247858,0 16.8424036,0 L13.3090322,0 C12.9035779,0 12.5498874,0.27618134 12.4524252,0.669657272 C12.4524252,0.669657272 11.8632355,3.08447663 11.6027083,4.12869895 C10.908283,4.34873677 10.237178,4.63440301 9.59793226,4.9830466 L6.81075002,3.30975765 C6.46224182,3.10262165 6.0188626,3.15617302 5.73159951,3.44266403 L3.23338816,5.94184594 C2.94700841,6.22833695 2.89177003,6.6736558 3.10053339,7.02141571 L4.82411196,9.90117174 C4.54633008,10.4491749 4.31342201,11.0195648 4.1279789,11.6037991 L0.669456099,12.457263 C0.276074084,12.5556467 0,12.9085909 0,13.3142028 L0,16.8489469 C0,17.2545588 0.276074084,17.6083867 0.66939721,17.7058867 L4.12880336,18.5567586 C4.33845006,19.2221152 4.61099077,19.8685021 4.94141989,20.4889675 L3.39904439,23.0606117 C3.19028103,23.4083716 3.2455194,23.8536904 3.53189915,24.1401815 L6.0301105,26.6393634 C6.3156658,26.9250296 6.76075281,26.9793468 7.10926101,26.7722697 C7.10926101,26.7722697 8.83884631,25.7349991 9.6859721,25.2275277 C10.2993065,25.5546093 10.9410845,25.8247227 11.6027672,26.0343919 L12.4524841,29.4934336 C12.5498874,29.8870273 12.9035779,30.1631498 13.3090322,30.1631498 L16.8424036,30.1631498 C17.247858,30.1631498 17.6006651,29.8869684 17.6990106,29.4934925 L18.5487276,26.0344508 C19.2293727,25.8187136 19.8849308,25.5399401 20.5086298,25.2016651 C21.3790169,25.7237468 23.1258568,26.7722697 23.1258568,26.7722697 C23.4734817,26.9802305 23.9186276,26.9267381 24.2050074,26.6393634 L26.7032187,24.1401815 C26.9895985,23.8536904 27.0448368,23.4083716 26.8360735,23.0606117 L25.2479408,20.4138542 C25.5610564,19.8192513 25.8207592,19.1970775 26.0234569,18.5567586 L29.4819797,17.7058867 C29.8754207,17.607503 30.1514358,17.2545588 30.1514358,16.8489469 L30.1514358,13.3142028 C30.1514358,12.9085909 29.8754207,12.5556467 29.4820386,12.457263 Z M15.0757179,21.2673771 C11.6665445,21.2673771 8.89231799,18.4920727 8.89231799,15.0815749 C8.89231799,11.671077 11.6665445,8.89577269 15.0757179,8.89577269 C18.4848913,8.89577269 21.2591179,11.671077 21.2591179,15.0815749 C21.2591179,18.4920727 18.4848913,21.2673771 15.0757179,21.2673771 Z" id="Shape" fill-rule="nonzero"></path>
                        </g>
                        <g id="fi_484613" transform="translate(93.9501, 13.0116)" fill="#E2231A">
                            <path d="M59.5421565,25.1587861 L52.5572967,23.4403587 C52.1374606,22.115755 51.5973824,20.8312474 50.9457445,19.6025415 C51.9945022,17.8561538 54.1984634,14.1805062 54.1984634,14.1805062 C54.6200835,13.4781676 54.5085237,12.5787982 53.9301489,12.0001987 L48.8847416,6.95283128 C48.3063668,6.37244709 47.4091307,6.26096287 46.7052808,6.68441251 L41.2765501,9.93839514 C40.0552195,9.29173911 38.7782279,8.75668628 37.4629396,8.34013748 L35.7451796,1.35256406 C35.5464413,0.557778001 34.8339093,0 34.0150504,0 L26.8790259,0 C26.0601671,0 25.345851,0.557778001 25.1490157,1.35244508 C25.1490157,1.35244508 23.9590836,6.22943319 23.4329207,8.33835278 C22.030454,8.78274289 20.675085,9.35967666 19.3840593,10.0638 L13.7550442,6.68441251 C13.0511943,6.26607901 12.1557421,6.37423178 11.5755833,6.95283128 L6.53017608,12.0001987 C5.95180129,12.5787982 5.84024144,13.4781676 6.26186156,14.1805062 L9.74281434,19.9964841 C9.18180388,21.1032356 8.71142093,22.2551995 8.33689857,23.4351236 L1.35203879,25.1587861 C0.557561386,25.3574826 0,26.0702915 0,26.8894685 L0,34.0282654 C0,34.8474423 0.557561386,35.5620359 1.35191985,35.7589477 L8.33856364,37.4773751 C8.76196777,38.8211347 9.31239313,40.1265827 9.97973036,41.3796795 L6.8647367,46.5733922 C6.44311658,47.2757309 6.55467643,48.1751003 7.13305123,48.7536998 L12.1784585,53.8010672 C12.7551682,54.378001 13.6540694,54.4877005 14.3579193,54.069486 C14.3579193,54.069486 17.8510033,51.974606 19.5618652,50.9497127 C20.8005601,51.6102894 22.0967001,52.1558125 23.4330396,52.5792621 L25.1491346,59.5651698 C25.345851,60.3600748 26.0601671,60.9177339 26.8790259,60.9177339 L34.0150504,60.9177339 C34.8339093,60.9177339 35.5464413,60.3599559 35.7450607,59.5652888 L37.4611556,52.5793811 C38.8357918,52.1436765 40.1597623,51.5806634 41.4193895,50.8974805 C43.1772303,51.9518808 46.7051619,54.069486 46.7051619,54.069486 C47.4072278,54.4894852 48.3062479,54.3814514 48.8846227,53.8010672 L53.9300299,48.7536998 C54.5084047,48.1751003 54.6199646,47.2757309 54.1983445,46.5733922 L50.9909393,41.2279801 C51.62331,40.0271154 52.1478078,38.7705682 52.5571777,37.4773751 L59.5420375,35.7589477 C60.3366339,35.5602512 60.8940763,34.8474423 60.8940763,34.0282654 L60.8940763,26.8894685 C60.8940763,26.0702915 60.3366339,25.3574826 59.5421565,25.1587861 Z M30.4470382,42.9517616 C23.5618449,42.9517616 17.9589952,37.3467352 17.9589952,30.4588669 C17.9589952,23.5709987 23.5618449,17.9659723 30.4470382,17.9659723 C37.3322315,17.9659723 42.9350812,23.5709987 42.9350812,30.4588669 C42.9350812,37.3467352 37.3322315,42.9517616 30.4470382,42.9517616 Z" id="Shape" fill-rule="nonzero"></path>
                        </g>
                        <path d="M50.4131586,8.39600146 C50.9440604,8.43326182 51.3910111,8.81946842 51.4850126,9.34939356 C52.665057,15.990018 53.8539695,19.3564621 55.0239635,19.3564621 C55.8486939,19.3564621 57.6684218,18.1132672 61.6419081,12.1865039 C61.9505169,11.7275509 62.5417215,11.5507121 63.0507487,11.7665856 C63.5597759,11.9812762 63.8459189,12.5271701 63.7318164,13.0701068 C62.5771938,18.5521114 62.3738194,21.8038172 63.1258317,22.7311862 C63.2109651,22.8346872 63.3280236,22.944694 63.6927969,22.944694 C65.5343993,22.944694 69.6172584,20.1690928 72.5259852,18.0819211 C72.9871248,17.7519008 73.6167577,17.8063128 74.0181857,18.2055309 C74.41784,18.6041576 74.469866,19.2358095 74.1393826,19.6959454 C67.4877394,28.2060936 68.7393196,37.9771799 68.7393196,37.9771799 C68.763559,38.1132098 68.7765655,38.251014 68.7765655,38.3965068 C68.7765655,38.5314365 68.7659305,38.661787 68.7453361,38.7877462 C70.2743293,39.2925357 71.7660635,39.9286824 73.1476498,40.8085728 C76.8192957,43.0777159 80.5730551,46.266304 82.4088781,50.0737494 C82.2211901,50.7574393 77.7929271,48.6356431 76.660934,48.7299451 C83.8517293,54.4587948 89.5527514,63.1758407 90.9017587,72.311352 C89.7521699,72.1286418 84.5555592,66.5117758 85.1772756,68.2386821 C89.8694749,74.5451318 90.3269643,82.7022593 94.3387946,89.3564478 C95.6051928,91.4936819 93.3373066,90.419687 91.1094861,89.0454755 L90.7918845,88.8474316 L90.4771438,88.6471892 C89.1749007,87.8108845 88.0074648,86.9664387 87.728659,86.7277781 C85.8400488,85.3603984 87.728659,87.8711905 88.1920136,88.3839579 C91.1832906,91.9497543 94.7669578,94.7375587 98.9899371,96.6884324 C108.492587,100.909495 118.695454,100.908741 128.891248,100.73929 L130.383183,100.713758 C130.880423,100.70516 131.377564,100.696631 131.874524,100.688641 L133.364779,100.666761 C137.088648,100.618459 140.797716,100.626969 144.457348,100.890768 C163.34298,100.833715 174.13014,111.776431 185.180557,124.468886 L185.9345,125.336883 C187.19208,126.787702 188.455513,128.258402 189.73707,129.735408 C196.124327,136.401384 207.702328,140.880731 215.180521,133.442657 C227.808402,119.998721 210.593896,104.309217 198.78715,97.8318448 C193.62573,94.8495424 190.335326,89.928154 185.062467,87.1639251 C180.674088,84.2393828 180.683941,79.8189741 180.989826,75.2763499 L181.127084,73.3260333 C181.28776,70.942957 181.368868,68.5801903 180.780835,66.4351554 C180.599012,64.2897837 175.314423,61.3546323 180.505168,62.4626814 C188.30595,63.5825183 193.895532,71.002911 193.942454,78.7592548 C194.124277,82.1541286 192.259127,85.861378 195.14483,88.5548804 C198.341391,92.1972972 202.933881,94.1128076 206.904654,96.7473712 C213.432676,100.755208 219.426961,105.988972 222.93438,112.943749 C229.597303,124.878852 222.089784,141.452438 208.32991,143.202919 C193.801688,145.289352 182.599062,133.195114 173.795323,123.258035 C174.714621,125.983145 175.491247,128.838456 176.238162,131.742969 L176.631433,133.284804 C176.762011,133.799984 176.892285,134.316251 177.022876,134.833161 L177.284663,135.867703 L177.548396,136.903166 C180.375862,147.950198 183.723965,159.019239 193.619865,165.788261 C199.232909,169.318694 198.370717,189.051398 198.716767,195.717375 C198.599462,199.306746 198.194759,204.599449 193.889667,205.371547 C190.9738,205.674661 188.029206,205.64868 185.083243,205.59493 L182.873942,205.55412 C181.401474,205.52972 179.930374,205.51721 178.464062,205.554257 L178.083915,205.554738 C177.32345,205.552573 176.56791,205.507106 175.924409,204.976657 C175.707395,204.799841 175.513841,204.900037 175.320288,205.017914 C172.938997,206.214372 171.877387,203.70358 172.358337,201.693767 C175.296827,189.122125 186.20619,196.660395 186.358687,190.884394 C185.83668,185.632949 184.857183,180.310777 182.446566,175.566205 C181.586251,173.778945 179.906096,172.822336 178.211984,171.943481 L177.677478,171.667654 C177.322084,171.484322 176.969831,171.300923 176.628239,171.110433 C168.821592,167.114383 161.032542,162.794171 154.674612,156.65275 C152.733214,155.373778 151.536703,152.214659 150.885661,156.175345 C149.049838,162.022073 149.495597,168.12813 151.34315,173.921813 C151.70093,175.524948 151.888618,177.27543 150.856334,178.678173 C144.908972,187.59561 138.574503,196.283187 131.606587,204.428527 C128.96136,206.968788 118.456699,204.988445 114.263046,205.583727 C112.392031,205.583727 113.160379,204.670176 111.142733,205.560151 C104.831725,205.312608 111.324556,192.222305 119.043224,193.513064 C123.44216,194.709521 126.263345,192.847056 128.61531,189.181064 C130.891027,185.815659 133.055304,182.18503 133.835382,178.147724 C133.888169,170.185094 121.301344,164.361942 121.113657,147.735312 C109.570846,151.695998 96.6145113,155.96906 83.7637506,155.356096 C82.5907008,155.279476 82.3971476,155.532913 82.5261831,156.629174 C82.6552185,157.695966 82.643488,158.762758 82.643488,159.835444 C82.6317575,169.778416 82.6845448,179.721389 82.6376228,189.664362 C82.760793,192.033701 80.2797927,193.076917 79.6874025,195.192819 C78.7313669,197.733081 77.8515796,200.308706 76.8368915,202.831286 C75.5627318,206.034037 70.8446714,206.149074 66.2578683,205.930282 L65.5879809,205.8962 C62.9154988,205.752898 60.3477505,205.541238 58.6018322,205.813588 L58.3984439,205.815431 L57.9905141,205.823801 C57.3104709,205.835873 56.6333644,205.814948 56.0152574,205.40691 C55.6985339,205.247776 55.3407537,205.624984 55.0474913,205.701604 C51.8802568,206.48549 52.0914058,201.976673 53.2527251,200.17904 C57.7982931,191.980656 64.1855493,198.847024 66.4495354,193.212476 C68.725252,180.399185 63.094613,167.361926 59.1648961,155.344309 C58.8833642,154.301092 58.1853995,155.721517 57.4639739,155.244113 C48.7951358,152.644912 41.3286738,146.998577 36.2669638,139.589972 C37.3989569,147.369891 46.8947951,153.022121 53.721945,155.68026 C54.5313494,155.815819 54.8773991,156.464145 53.909633,156.65275 C46.3258659,158.904211 38.5133542,160.136032 30.7067077,161.285338 C29.5923104,161.48573 29.4515444,161.644864 29.416353,162.758807 C29.3342395,165.033844 29.8034594,167.609469 31.8093746,168.953273 C35.7332262,171.110433 39.0940139,175.689976 37.2229994,180.304883 C35.9443751,183.676181 32.5718569,184.772443 29.2462607,184.49543 C28.0204237,184.436492 26.9998703,185.350043 25.7505723,184.866745 C21.9557562,184.20663 19.6507133,180.682091 19.1932239,177.033781 C18.489394,171.281355 17.5626846,165.564293 16.4365568,159.876701 C15.0886217,152.734715 21.0802018,150.034452 26.9196057,147.727489 L27.4419313,147.521839 C29.5280124,146.702583 31.5658721,145.918286 33.2111691,144.982871 L33.3816686,144.912465 C33.9821223,144.66127 34.5798122,144.354532 33.8622117,143.821777 C28.5809917,139.016636 26.5022137,131.755596 26.0477275,124.784893 L26.025,124.412 L25.8978536,124.83535 C25.1917469,127.252934 24.8484237,129.849233 25.1288559,132.35229 C25.2051041,132.711816 25.0643382,133.342461 24.636175,133.224584 C18.7650607,126.116566 17.3398052,115.507586 21.0173163,107.026295 C19.2460111,107.592107 17.7093159,111.847487 16.6828973,113.509561 C14.8998616,113.698165 16.2019469,104.869135 16.6946278,103.501756 C17.8852733,99.2345878 20.4835787,95.5096567 23.3282244,92.1855094 C24.3487778,90.9890521 25.1933736,89.6923989 25.5042318,88.1069457 C26.4133454,83.9517615 20.0730112,86.9694272 18.5304507,88.1776722 C15.5391737,89.9340479 16.9996207,93.2817708 15.216585,92.6805952 C14.03767,92.4389462 12.8939464,92.0735257 11.9789675,91.2248072 C11.8557973,91.1128236 11.7619533,90.9301133 11.4628256,90.9831582 C12.4657832,94.0479749 9.59767643,92.739534 8.36597413,91.4487746 C5.33950562,88.3073375 7.42166903,83.4684635 5.69728581,82.2661123 C1.35113627,79.3722181 4.47144876,76.5018994 1.66199447,74.2327563 C1.24556179,73.9262746 0.958164586,73.4370827 0.635575888,73.0127235 C-1.64165435,69.7353469 2.5985301,66.6635754 7.0466209,63.770193 L7.57050438,63.4306164 L8.09402315,63.092676 L8.61489411,62.756362 C11.7276102,60.7433372 14.5740564,58.8176029 14.9350531,56.9695869 C15.7972447,53.2505498 19.855997,51.2878883 22.4660328,48.8183533 C24.1024373,47.5511695 25.0526077,47.2329001 24.1141678,44.9991202 C23.1464017,41.3154463 24.5130047,37.2840336 26.7359341,34.36067 C27.2168846,34.1720659 27.0995796,34.991315 27.1230406,35.2683273 C27.3758601,42.6035466 27.498988,37.4710415 31.9929072,33.5034182 C31.6514813,29.8750017 30.4363609,24.5786037 26.6201285,19.6959454 C26.2902363,19.235218 26.3428535,18.6041576 26.7425079,18.2055309 C27.141571,17.8051299 27.7723863,17.7513094 28.2323435,18.0819211 C31.1422527,20.1696843 35.2251118,22.944694 37.0667142,22.944694 C37.4308963,22.944694 37.5497284,22.8352787 37.6330883,22.7311862 C38.3868741,21.8038172 38.1817261,18.5521114 37.0276947,13.0701068 C36.913001,12.5271701 37.1991441,11.9812762 37.7087624,11.7665856 C38.218972,11.5507121 38.8101767,11.7275509 39.1181943,12.1865039 C43.0910893,18.1126757 44.9096348,19.3564621 45.7349564,19.3564621 C46.903768,19.3564621 48.0938629,15.990018 49.2750897,9.34939356 C49.3708649,8.81946842 49.8166332,8.43326182 50.3457613,8.40250723 L50.3800512,8.39836719 C50.391284,8.39836719 50.4019257,8.39600146 50.4131586,8.39600146 Z M24.3782806,14.063125 C25.4629577,14.063125 26.3422623,14.9427712 26.3422623,16.0278698 C26.3422623,17.1129684 25.4629577,17.9926146 24.3782806,17.9926146 C23.2936034,17.9926146 22.4142988,17.1129684 22.4142988,16.0278698 C22.4142988,14.9427712 23.2936034,14.063125 24.3782806,14.063125 Z M76.3191541,14.063125 C77.4038312,14.063125 78.2831358,14.9427712 78.2831358,16.0278698 C78.2831358,17.1129684 77.4038312,17.9926146 76.3191541,17.9926146 C75.2344769,17.9926146 74.3551723,17.1129684 74.3551723,16.0278698 C74.3551723,14.9427712 75.2344769,14.063125 76.3191541,14.063125 Z M64.8953071,4.80895237 C66.5043646,4.80895237 67.8087635,6.11385799 67.8087635,7.72354065 C67.8087635,9.3332233 66.5043646,10.6381289 64.8953071,10.6381289 C63.2862496,10.6381289 61.9818507,9.3332233 61.9818507,7.72354065 C61.9818507,6.11385799 63.2862496,4.80895237 64.8953071,4.80895237 Z M35.6212189,4.80895237 C37.2302764,4.80895237 38.5346753,6.11385799 38.5346753,7.72354065 C38.5346753,9.3332233 37.2302764,10.6381289 35.6212189,10.6381289 C34.0121614,10.6381289 32.7077625,9.3332233 32.7077625,7.72354065 C32.7077625,6.11385799 34.0121614,4.80895237 35.6212189,4.80895237 Z M50.37946,-6.4659389e-13 C52.3104596,-6.4659389e-13 53.8758441,1.56599266 53.8758441,3.49774251 C53.8758441,5.42949235 52.3104596,6.99548501 50.37946,6.99548501 C48.4484603,6.99548501 46.8830758,5.42949235 46.8830758,3.49774251 C46.8830758,1.56599266 48.4484603,-6.4659389e-13 50.37946,-6.4659389e-13 Z" id="Combined-Shape" fill="#FFFFFF" fill-rule="nonzero"></path>
                        <g id="Asset-1" transform="translate(0, 29.4694)"></g>
                    </g>
                </g>
            </g>
        </g>
    </g>
</svg>