<?xml version="1.0" encoding="UTF-8"?>
<svg width="451px" height="235px" viewBox="0 0 451 235" version="1.1" xmlns="http://www.w3.org/2000/svg" xmlns:xlink="http://www.w3.org/1999/xlink">
    <title>Group</title>
    <g id="Page-1" stroke="none" stroke-width="1" fill="none" fill-rule="evenodd">
        <g id="kclea---concept-6-copy-2" transform="translate(-749, -1061)">
            <g id="Group" transform="translate(749, 1061)">
                <g>
                    <g fill="#FFFFFF" fill-rule="nonzero">
                        <g id="logo-kcla-blue-bg">
                            <path d="M25.270355,89.9452425 C26.093009,87.9285527 26.3861889,82.9000382 23.2268475,82.9748935 C22.1810268,83.8115115 22.7892656,86.713255 21.6340494,87.2724681 C20.5357188,86.8321428 21.5246539,81.2091892 22.0147457,80.3021191 C20.4263233,74.5470679 19.7218165,85.5860223 18.9516723,86.2333005 C17.3238676,85.7137166 19.4898981,81.8960966 15.9629879,83.2522984 C12.9830551,84.5028222 12.672372,87.5102437 13.6744345,90.4207938 C15.3547491,89.3419969 17.1750898,88.5846374 19.1004502,88.8092033 C20.0893853,89.1306407 21.135206,88.2852162 21.9053502,89.0866082 C23.4762692,88.7211382 24.1676486,90.4956491 25.2572276,89.9672587 M75.8942057,45.1421465 C76.8743891,43.4865235 78.6334684,42.2315964 78.8347561,40.0563896 C78.353416,39.3254497 78.182759,38.4492024 77.2200788,38.0793292 C75.8460717,38.9599797 74.6908554,37.779908 73.8769531,39.505983 C73.1155606,39.2902237 65.7816878,45.8422636 64.2457754,46.04041 C63.1386931,46.9210605 61.2177086,49.1226869 60.9857902,50.518518 C59.6380379,51.6149279 64.2720303,55.119917 63.1736997,56.3087953 C63.6900463,56.8151693 63.1955788,59.0520217 64.3157885,58.0700963 C65.7948153,57.524093 68.2890322,55.9521318 67.8908326,54.1467982 C67.5976527,52.262206 65.8517009,50.624196 68.7353657,49.5057699 C68.7353657,48.9289438 74.6077149,45.4767937 75.885454,45.1421465 M19.8749701,100.182805 C19.5949177,98.9851202 18.5622244,99.9009968 17.9452339,100.099143 C17.8927241,101.252795 19.5774144,101.195553 19.8749701,100.182805 M29.939354,105.303788 C29.7249388,106.012711 29.4667655,106.069954 28.849775,106.052341 C27.7295653,106.012711 28.6966214,103.480841 27.1388298,103.850714 C26.359934,104.040054 25.0165575,105.858598 24.2289101,105.224529 C24.0319982,105.316998 22.0935104,106.642377 21.7215658,106.012711 C20.846402,106.329746 19.0348129,104.911898 18.4922113,105.603209 C15.7310695,106.774474 13.4381403,104.837043 11.5171558,103.0185 C7.41263748,102.393238 10.4450801,104.339475 8.60723608,105.312594 C7.53078459,105.38745 7.78895792,102.912822 7.82834029,102.318383 C7.95523904,100.350129 8.91354341,100.909342 10.3969461,100.455807 C10.9526751,100.28408 10.834528,100.803664 11.2721099,100.953374 C11.6626406,100.810663 12.1001817,100.926435 12.3704405,101.243989 C13.4162612,101.816412 15.8054584,104.084087 17.1619623,104.247007 C20.3431828,102.99208 15.5560367,101.371683 16.0898867,99.4430585 C16.8775341,97.6817574 19.2404764,98.1220827 20.5838528,98.3642616 C20.772013,98.4655364 20.8639052,98.6240535 21.0739446,98.6240535 C23.4106319,100.495436 19.2623555,101.856041 20.1112644,104.097297 C20.6451143,104.977947 24.6096064,103.705407 24.9684235,102.723482 C25.1653354,102.723482 25.7035611,101.842831 25.9748619,102.43727 C28.5434677,101.054649 30.2325338,102.43727 29.9130991,105.286175 M26.6574897,98.963104 C26.2199078,99.1216211 25.7823259,98.0824534 25.7341919,97.7522095 C24.8021424,97.2282224 24.3339298,98.6901023 23.3099881,98.3906811 C23.3493705,97.2106094 23.3099881,97.1577704 24.2945474,96.1890548 C25.8873455,94.0887032 28.9591705,97.8799038 26.6574897,98.9498942 M14.0463792,97.6289184 C13.468771,98.0075981 13.3812547,97.3118842 12.7598884,97.4704013 C11.5521623,98.8266031 12.0247508,98.7517478 11.5215316,97.1797866 C11.8847246,94.2428171 14.3745656,94.2252041 14.4752094,97.1797866 C14.1601505,97.5540631 14.9521737,97.0520923 14.0376275,97.6201119 M13.5300325,110.750611 C13.5300325,109.504491 14.8427782,110.636127 14.6808729,111.53439 C15.9061023,112.234508 17.0044328,112.956641 18.3171786,113.220836 C18.7547605,113.449805 19.468019,114.585844 20.1593984,114.26881 C20.4788332,113.529064 21.861592,112.626397 22.0322489,111.767763 C22.1941542,110.799047 23.2618541,111.16892 23.7825766,110.371932 C24.9290412,110.235431 25.0340608,110.429174 25.0953223,111.507971 C25.0253092,111.948296 24.2595408,111.802989 24.4301978,112.388621 C23.6906844,112.754091 22.3507238,115.083412 19.7305681,116.602534 C18.7241297,117.104505 18.37844,116.162209 17.5426586,115.721884 C17.5426586,115.440075 16.7375079,114.594651 16.1030141,114.47136 C15.0834483,113.824082 12.5192183,112.080394 13.5344083,110.719789 M94.8896362,45.9215222 C93.248704,44.7942895 90.9295199,44.820709 89.0260387,44.4596423 C89.0260387,44.4596423 77.2270407,44.2276658 74.3147431,47.8545304 C73.7983964,48.2948557 72.5073217,48.3829404 72.4110537,48.9289438 C71.7196743,49.3120268 70.6125921,49.5057699 70.5469548,50.6374058 C70.2318958,53.8429738 71.6671645,52.1697377 69.7549315,56.5817969 C68.9760357,58.2021939 67.4401233,57.9027727 66.4818189,59.4086851 C65.8341977,59.2897973 55.8704577,61.8921197 52.0985017,65.1064941 C52.1388726,65.0835596 49.477386,67.7968815 47.7445617,67.5767189 C47.1669536,66.8942147 46.1036296,66.1544682 45.6704235,65.5732389 C45.2984788,65.5732389 43.4868898,63.2527247 43.3074812,63.0413686 C43.0755628,63.0413686 42.2222781,62.1122823 42.1216342,61.9537652 C39.636169,56.8327823 38.9141588,52.1961573 38.9404138,46.3046052 C39.7173787,40.8693583 40.9573862,35.5114107 42.6467325,30.2899752 C43.0536837,30.0962321 42.6073501,27.4278609 43.1324484,27.2473276 C43.4256283,27.2473276 43.6838016,25.5961078 43.626916,25.4023647 C43.8544586,23.6983059 44.1213835,21.4966796 44.6333544,19.9731542 C44.5743272,18.5886822 44.6020958,17.2018426 44.7164949,15.8208869 C45.2634723,14.0595858 45.0096748,12.3863498 45.1540768,10.263982 C44.642106,10.263982 44.8302662,8.90337692 44.6639851,8.75366633 C44.7208707,8.72724681 43.7888213,7.43269052 43.4825139,7.32701246 C42.804262,6.44636192 42.2616604,3.8704591 40.6863656,4.44728521 C39.7280612,6.23940905 37.8333315,2.76083943 36.6518604,3.1263094 C36.1267621,1.76130107 34.3326763,0.167323602 33.0111789,0 C32.5210872,0.80579524 33.2474732,2.09594828 33.5319014,2.67717763 C34.5602189,4.0201697 35.0065524,3.97613717 33.6019145,5.68019596 C33.0111789,5.92237485 32.3460544,4.57938279 32.3241754,5.68019596 C33.8513362,6.85146117 33.5275256,9.1279428 34.9759217,10.1274812 C38.2009003,15.9485812 38.9797961,9.73118842 41.8065752,14.2269094 C43.119321,18.7622597 43.3556152,19.7573948 42.3841834,24.5217142 C42.2397813,24.4248426 42.2441571,24.8079256 42.0953793,24.6361987 C41.9856208,26.4031891 41.5274704,28.1305273 40.747627,29.7175523 C41.0014245,30.880011 39.9862345,33.3106065 39.9949862,34.7196474 C39.8505841,34.7460669 39.1504531,35.5034264 39.6186657,35.5606686 C39.2510969,35.8732996 39.6711755,37.5597454 39.0454334,37.832747 C39.1548289,37.9560381 38.6559855,39.924292 38.4459462,40.0343734 C38.06525,40.2677457 38.3102958,41.9189655 38.1177598,42.2359997 C37.9733578,43.0197787 37.5007693,44.2658992 37.4570111,45.1773725 C37.1069456,46.4102832 37.1507038,51.5092498 37.4263804,52.662902 C37.4482595,53.8605868 39.0148027,58.0260638 39.6142899,58.8846981 C40.0825025,60.817726 41.3646175,64.2390533 43.1149451,65.5159966 C43.3512394,65.4499478 46.9219077,68.4265466 46.9525384,69.1354703 C46.0773746,73.0543652 44.9484133,76.7530974 45.2022108,80.7952834 C45.5260214,82.4015958 45.9767308,85.0796483 45.5260214,86.4270436 C45.0578088,89.2451253 45.5785313,92.7369047 45.0884395,95.5549864 C44.5414622,97.6465314 44.6246027,101.393699 42.8655235,102.956854 C42.3710559,103.19463 42.0735002,102.846773 41.8765883,103.72302 C40.5638426,105.396256 37.5532791,106.853733 41.8765883,107.02546 C42.7517522,109.227086 40.9314114,110.548062 39.6405448,111.908667 C37.4876418,112.388621 38.9535412,113.005077 39.5705317,114.110293 C40.0943597,115.007658 40.6863656,119.700777 36.6299813,119.350164 C36.8137657,119.094775 34.8533988,119.072759 34.9584184,119.464648 C33.8688395,119.306131 34.2101534,123.427576 33.0243064,123.682964 C32.9980515,123.766626 33.2299699,124.858633 32.8273945,124.563615 C30.9239133,125.316571 31.9522307,123.898724 31.5846619,122.934412 C32.6786167,121.415289 32.1666459,115.299171 35.5228991,117.822235 C35.8335822,118.315399 35.5579056,118.218528 36.1223863,118.051204 C39.0410576,116.681793 37.653923,116.056531 36.2930432,113.832888 C35.1728336,113.18561 35.7591933,111.675294 35.5447782,110.636127 C36.0173666,109.755476 36.7043702,110.794644 37.386998,110.266254 C38.6603613,109.596959 39.1373256,109.046553 37.990861,107.818045 C37.5532791,106.761264 36.2405334,106.99904 36.2974191,105.730903 C35.282229,103.058129 37.0850665,104.348282 37.9646061,103.044919 C37.6283993,102.547052 37.0121697,102.323179 36.4374453,102.490109 C34.897157,101.930896 32.6129794,100.777244 32.2016524,98.9675072 C31.1864624,96.6073638 33.6106662,97.0961248 33.2124666,95.0530156 C32.7048716,92.2921762 30.7182498,94.2163976 29.0904451,93.247682 C25.0340608,89.2275123 18.7153781,90.3855677 13.9238562,91.3895094 C12.8999146,91.4863809 11.7797049,92.6444364 11.1014529,93.0759551 C10.4100735,92.9438575 9.63117774,93.5162804 8.97480488,93.4634414 C8.31843202,93.4106023 6.9356732,92.4594998 6.41057491,93.4634414 C5.0978292,95.0221928 7.58329442,97.1577704 6.69062733,98.5580047 C5.93798646,101.199956 3.70194292,101.798799 2.07413823,103.872731 C1.19897442,104.387911 0.376320439,104.546428 0,105.634032 C1.2864908,106.765668 1.26023589,106.030325 2.68237708,106.074357 C4.10889409,108.469726 2.30168082,111.692907 2.04788332,114.097083 C1.73282435,114.224778 1.46589938,115.858384 1.35650391,116.104967 C1.39151046,116.611341 -0.336938067,118.522352 1.09833058,118.165689 C2.45262862,117.960121 3.6297579,117.120345 4.2707994,115.902417 C4.86153497,115.462092 5.67106149,118.887822 6.02112702,119.310535 C6.62936587,120.517026 7.28573872,121.622242 7.33387273,122.938815 C7.6708108,123.960369 7.92898413,124.616454 8.29217711,125.549944 C8.57660535,126.549482 8.32280784,125.866978 7.9683665,126.575902 C8.66412173,126.329319 8.30092875,127.456552 8.02525214,127.593053 C8.02525214,128.253541 8.16527835,127.817619 7.85021938,128.11704 C7.85021938,128.006959 8.05588288,128.764318 8.08213779,128.724689 C7.74957554,128.768721 7.92898413,129.605339 8.45845823,129.451226 C8.24841892,129.508468 9.26360894,128.737899 9.16734092,128.962464 C9.8280896,128.715882 10.3488121,127.694328 11.0533189,127.416923 C11.7446983,128.548559 11.1625045,129.929577 12.0507957,130.959938 C12.2716037,132.231199 16.6849981,136.593301 16.9300439,136.791448 C17.6914364,137.311032 20.1287676,140.992151 20.0456271,138.301763 C19.7556932,137.311032 22.636112,134.224351 22.5792263,137.020417 C22.138306,138.301763 25.125953,139.358544 25.6991853,140.212775 C27.2526011,142.009302 27.4932711,140.045451 28.1583956,138.830154 C29.1123242,137.632469 28.3859382,134.937678 29.8474618,134.426901 C29.8474618,134.426901 30.6526125,140.406518 29.4142557,140.459357 C29.5192753,141.780333 28.2180435,142.815097 27.0234449,142.894356 C24.8880452,142.85913 25.462614,142.521259 24.8021424,141.76272 C24.3339298,141.119845 21.7390691,139.252866 21.5815396,140.543019 C20.6451143,141.212313 20.4569541,143.691345 19.0260612,142.894356 C17.5864168,140.543019 9.42551424,148.725188 8.45845823,149.70271 C7.81375422,150.354392 8.22604645,151.532894 9.6953349,153.238219 C10.2197724,155.099879 26.7800126,148.446858 27.375124,148.107807 C29.8474618,147.12743 30.2634988,146.275856 31.8603385,145.668405 C32.3679335,145.368984 35.1509545,144.439898 35.5316507,143.620893 C36.4593244,142.018109 31.4008775,141.22112 33.2430974,140.164339 C33.6806793,140.164339 36.4243178,141.608606 35.2647258,140.080677 C35.0590623,139.200027 33.6369211,139.001881 33.5800354,137.949503 C33.4487608,135.448456 37.8202041,140.080677 37.483266,140.309647 C37.990861,143.365504 41.9553531,144.765738 42.6161018,147.522175 C45.5566522,149.996803 44.6464818,156.196582 43.1587033,159.921734 C42.6467325,160.67469 42.2765289,161.890524 41.5265228,163.294626 C40.8745258,164.901813 46.6462311,164.214905 47.7226826,163.906678 C48.8997779,163.369481 51.8578316,158.583145 51.6740472,158.525903 C53.0018179,156.371241 54.9232136,146.431453 54.435189,145.223677 C54.0588686,144.225355 53.8400776,143.264229 54.0588686,142.29111 C54.0019829,138.706863 53.6212867,134.46653 53.3106035,130.745782 C53.1749531,128.914029 53.4287506,126.175206 52.8423909,124.501969 C52.5229561,123.969176 52.0678709,124.550405 51.6040341,124.154113 C51.3808673,123.964773 50.4181871,123.528851 50.1381347,123.854691 C49.3679906,124.022015 48.825389,122.916799 49.2629709,121.780759 C49.5473991,121.21274 49.8843372,121.604629 50.4138113,121.644259 C50.9432854,121.683888 50.7463736,122.379602 51.3283575,122.428037 C51.6652956,122.45886 52.4835737,122.317956 52.4223123,122.952025 C53.3368584,122.745072 53.9932313,122.097794 54.5008263,123.299882 C55.3322319,123.264655 55.4897614,124.180532 55.5116405,124.726535 C55.0740586,125.999075 55.6735458,128.020168 55.6560425,129.261886 C55.8442028,130.732572 58.5448336,130.019245 58.6892357,129.451226 C60.4078147,128.11704 72.4110537,103.383686 71.4993616,87.4838242 C71.6700186,86.7176583 70.783249,81.0198493 69.5055099,84.3134823 C68.5865879,85.2249556 67.4970089,85.9514923 66.9894139,87.3032909 C66.8493877,87.8140682 64.9896646,88.333652 64.9940404,87.4838242 C65.4009916,86.7000452 65.1078117,85.2821979 65.3878641,84.5424514 C65.8910833,84.1021262 67.3307278,83.9788351 67.3832376,83.2214756 C69.356732,82.6270365 70.4463109,80.2756996 71.6934194,78.8754652 C72.0522365,78.558431 75.0102902,74.357728 75.1896988,74.2168239 C76.5724576,72.6272497 77.3776083,69.8884265 78.1915107,68.1315287 C78.2702754,67.9201726 82.7948723,54.6751885 82.6067121,54.5827202 C85.0134126,51.0601181 87.4201131,48.898121 91.9140792,50.3644041 C92.377916,52.1257052 94.894012,51.2450547 95.9267053,51.3243132 C97.9920919,48.8540885 97.7207911,47.5859517 95.0121591,45.9215222" id="Shape"></path>
                        </g>
                        <path d="M49.4985883,169.957992 C50.2510565,169.957992 50.9058187,170.473191 51.0884439,171.207306 L52.6669332,177.661476 C53.8755819,178.046227 55.0490389,178.540436 56.1713478,179.137729 L61.1599336,176.132143 C61.8067175,175.741018 62.6312085,175.843992 63.1626904,176.380072 L67.7990315,181.042143 C68.3305134,181.576575 68.4330283,182.40729 68.0455919,183.056015 C68.0455919,183.056015 68.0288541,183.084073 67.9976977,183.1363 L67.8632919,183.361598 C67.5749198,183.844974 66.9840618,184.835329 66.3806139,185.846465 L66.1392505,186.250874 C65.7381495,186.922897 65.3486321,187.575343 65.0565934,188.064153 C65.6553986,189.199065 66.1516889,190.385518 66.5374859,191.609007 L72.9560347,193.196256 C73.6860983,193.379785 74.198345,194.038181 74.198345,194.794825 L74.198345,201.388675 C74.198345,202.145319 73.6860983,202.803715 72.9559254,202.987244 L66.5373766,204.574494 C66.1611972,205.768969 65.679224,206.929597 65.098124,208.038792 L68.0454826,212.976157 C68.432919,213.624882 68.3304041,214.455597 67.7989222,214.990029 L63.1625811,219.6521 C62.6310992,220.18818 61.8049688,220.287967 61.1598243,219.900029 C61.1598243,219.900029 59.8469897,219.107948 58.4759313,218.280911 L58.0836997,218.044317 C57.4309526,217.65059 56.7920972,217.265286 56.3026062,216.970162 C55.1451057,217.601193 53.9284787,218.121228 52.6652938,218.523673 L51.0883346,224.976304 C50.9058187,225.710309 50.2510565,226.225509 49.4985883,226.225509 L42.9411308,226.225509 C42.1886625,226.225509 41.532261,225.710419 41.3514938,224.976194 L39.7745345,218.523563 C38.5465413,218.132438 37.3554884,217.628558 36.2172231,217.018407 C34.6450727,217.965064 31.4351972,219.900029 31.4351972,219.900029 C30.7884133,220.286319 29.9623922,220.184993 29.4324404,219.6521 L24.7960993,214.990029 C24.2646174,214.455597 24.1621025,213.624882 24.5495389,212.976157 L27.4119784,208.178912 C26.7987468,207.021471 26.2929483,205.815676 25.9038725,204.574494 L19.4836844,202.987244 C18.7537301,202.805364 18.2413741,202.145319 18.2413741,201.388675 L18.2413741,194.794825 C18.2413741,194.038181 18.7537301,193.379785 19.4837937,193.196256 L25.9023424,191.604171 C26.2464996,190.514318 26.6787454,189.45029 27.1942708,188.428024 L23.995543,183.056015 C23.6081066,182.40729 23.7106215,181.576575 24.2421034,181.042143 L28.8784445,176.380072 C29.4115658,175.84564 30.2344174,175.745743 30.8812013,176.132143 L36.0538331,179.253561 C37.2401865,178.603188 38.4856662,178.070295 39.7744252,177.659828 C39.9490236,176.956408 40.2031606,175.919582 40.4566238,174.881871 L40.5732669,174.404075 C40.9793057,172.740045 41.3513845,171.207196 41.3513845,171.207196 C41.532261,170.473191 42.1886625,169.957992 42.9411308,169.957992 Z M46.2198595,186.552513 C39.8928966,186.552513 34.7443088,191.729674 34.7443088,198.09175 C34.7443088,204.453826 39.8928966,209.630987 46.2198595,209.630987 C52.5468224,209.630987 57.6954102,204.453826 57.6954102,198.09175 C57.6954102,191.729674 52.5468224,186.552513 46.2198595,186.552513 Z M84.7031348,142.155218 C85.2254363,142.155218 85.6799182,142.512827 85.8066816,143.02239 L86.9023389,147.502343 C87.7412833,147.769406 88.5558005,148.112445 89.3348149,148.527036 L92.7974804,146.440806 C93.2464245,146.169319 93.8187182,146.240795 94.1876292,146.612897 L97.4057954,149.848923 C97.7747064,150.219882 97.8458638,150.796496 97.5769373,151.246787 C97.5769373,151.246787 96.1711611,153.603361 95.5022207,154.723025 C95.917862,155.510787 96.2623458,156.334325 96.5301343,157.18357 L100.985362,158.285308 C101.492112,158.412699 101.847672,158.869703 101.847672,159.394903 L101.847672,163.97181 C101.847672,164.497011 101.492112,164.954015 100.985286,165.081405 L96.5300585,166.183143 C96.2689457,167.01225 95.9343996,167.817862 95.5310478,168.587774 L97.5768614,172.014886 C97.8457879,172.465178 97.7746305,173.041792 97.4057195,173.41275 L94.1875534,176.648776 C93.8186424,177.020879 93.2452107,177.090142 92.7974045,176.820868 C92.7974045,176.820868 90.5471461,175.463204 89.4259237,174.787195 C88.6224822,175.225205 87.7779999,175.586171 86.901201,175.865515 L85.8066058,180.3444 C85.6799182,180.853886 85.2254363,181.211495 84.7031348,181.211495 L80.1514878,181.211495 C79.6291863,181.211495 79.1735665,180.853962 79.0480927,180.344324 L77.9534975,175.865438 C77.1011257,175.593951 76.2743949,175.244199 75.4843048,174.820683 C74.3930475,175.477774 72.1650163,176.820868 72.1650163,176.820868 C71.7160722,177.088998 71.1427164,177.018666 70.7748674,176.648776 L67.5567013,173.41275 C67.1877903,173.041792 67.1166329,172.465178 67.3855593,172.014886 L69.3724291,168.685033 C68.9467743,167.881634 68.5956906,167.04467 68.3256262,166.183143 L63.8692603,165.081405 C63.3625862,164.955159 63.0069508,164.497011 63.0069508,163.97181 L63.0069508,159.394903 C63.0069508,158.869703 63.3625862,158.412699 63.8693362,158.285308 L68.3245641,157.180214 C68.5634497,156.423727 68.8634791,155.685167 69.2213144,154.975594 L67.001021,151.246787 C66.7320946,150.796496 66.803252,150.219882 67.172163,149.848923 L70.3903291,146.612897 C70.760378,146.241939 71.3315338,146.172599 71.780478,146.440806 L75.370893,148.607437 C76.1943618,148.156002 77.0588713,147.786111 77.9534216,147.501199 C78.2890297,146.149104 79.0480169,143.022314 79.0480169,143.022314 C79.1735665,142.512827 79.6291863,142.155218 80.1514878,142.155218 Z M82.4273113,153.673769 C78.0356547,153.673769 74.4619291,157.267328 74.4619291,161.683357 C74.4619291,166.099386 78.0356547,169.692945 82.4273113,169.692945 C86.8189679,169.692945 90.3926935,166.099386 90.3926935,161.683357 C90.3926935,157.267328 86.8189679,153.673769 82.4273113,153.673769 Z" id="Combined-Shape"></path>
                    </g>
                    <g transform="translate(150.9153, 34.82)">
                        <g id="KCLEA" transform="translate(1.8678, 0)" fill-rule="nonzero">
                            <polygon id="Path" fill="#E31F13" points="0 108.859162 0 0.909686593 15.4646721 0.909686593 15.4646721 50.184377 15.7679009 50.184377 38.3584513 0.909686593 53.8231234 0.909686593 32.7487173 44.1197998 57.7650986 108.859162 41.39074 108.859162 23.8034658 60.9490017 15.4646721 76.5652882 15.4646721 108.859162"></polygon>
                            <path d="M103.603195,78.0814325 L103.603195,84.7524676 C103.603195,88.0879851 102.971468,91.2466191 101.708015,94.2283696 C100.444561,97.2101201 98.7009953,99.8633726 96.477317,102.188127 C94.2536386,104.512882 91.6509242,106.357524 88.6691737,107.722054 C85.6874232,109.086584 82.4782511,109.768849 79.0416573,109.768849 C76.1104449,109.768849 73.1286944,109.364544 70.0964058,108.555933 C67.0641171,107.747323 64.3350574,106.332255 61.9092265,104.310729 C59.4833955,102.289204 57.4871389,99.6864891 55.9204564,96.5025861 C54.3537739,93.318683 53.5704327,89.2503624 53.5704327,84.2976243 L53.5704327,24.8647669 C53.5704327,21.3270968 54.1768904,18.0421174 55.3898059,15.0098288 C56.6027213,11.9775401 58.3210182,9.34955665 60.5446966,7.12587831 C62.7683749,4.90219997 65.4216275,3.158634 68.5044543,1.8951804 C71.587281,0.631726801 74.9986058,0 78.7384284,0 C86.0159212,0 91.928884,2.37529277 96.477317,7.12587831 C98.7009953,9.45063294 100.444561,12.2049618 101.708015,15.3888649 C102.971468,18.5727679 103.603195,22.0346308 103.603195,25.7744535 L103.603195,31.8390307 L88.1385232,31.8390307 L88.1385232,26.6841401 C88.1385232,23.6518514 87.2793748,21.0238679 85.5610779,18.8001896 C83.842781,16.5765112 81.5180263,15.4646721 78.586814,15.4646721 C74.745915,15.4646721 72.1937388,16.6523185 70.9302852,19.0276112 C69.6668316,21.402904 69.0351048,24.4099236 69.0351048,28.0486699 L69.0351048,83.2363232 C69.0351048,86.3696882 69.7173697,88.9976717 71.0818996,91.1202737 C72.4464295,93.2428758 74.8975295,94.3041768 78.4351996,94.3041768 C79.4459624,94.3041768 80.5325325,94.1272933 81.6949098,93.7735263 C82.8572872,93.4197593 83.9438573,92.8385706 84.9546201,92.0299603 C85.8643067,91.22135 86.6223789,90.1095108 87.2288366,88.6944428 C87.8352943,87.2793748 88.1385232,85.5105397 88.1385232,83.3879377 L88.1385232,78.0814325 L103.603195,78.0814325 Z" id="Path" fill="#E31F13"></path>
                            <polygon id="Path" fill="#E31F13" points="106.079564 108.859162 106.079564 0.909686593 121.544236 0.909686593 121.544236 93.3944902 152.170352 93.3944902 152.170352 108.859162"></polygon>
                            <polygon id="Path" fill="#FFFFFF" points="154.596183 108.859162 154.596183 0.909686593 200.68697 0.909686593 200.68697 15.4646721 170.060855 15.4646721 170.060855 47.1520884 196.744995 47.1520884 196.744995 61.7070739 170.060855 61.7070739 170.060855 93.3944902 200.68697 93.3944902 200.68697 108.859162"></polygon>
                            <path d="M241.926096,71.1071687 L234.345374,31.9906452 L234.042145,31.9906452 L226.461423,71.1071687 L241.926096,71.1071687 Z M203.719259,108.859162 L227.825953,0.909686593 L240.71318,0.909686593 L264.819875,108.859162 L249.355203,108.859162 L244.80677,85.6621542 L223.732364,85.6621542 L219.183931,108.859162 L203.719259,108.859162 Z" id="Shape" fill="#FFFFFF"></path>
                        </g>
                        <text id="King’s-College-Londo" font-family="Urbanist-SemiBold, Urbanist" font-size="25.269072" font-weight="500" line-spacing="37.903608" fill="#E31F13">
                            <tspan x="0" y="148.3728">King’s College London </tspan>
                            <tspan x="0" y="186.276408">Engineers’ Association</tspan>
                        </text>
                    </g>
                </g>
                <line x1="123.425809" y1="10.7596337" x2="123.425809" y2="228.210741" id="Line" stroke="#FFFFFF" stroke-width="1.8802481" stroke-linecap="square"></line>
            </g>
        </g>
    </g>
</svg>