<?xml version="1.0" encoding="UTF-8"?>
<svg width="554px" height="206px" viewBox="0 0 554 206" version="1.1" xmlns="http://www.w3.org/2000/svg" xmlns:xlink="http://www.w3.org/1999/xlink">
    <title>kclea-logo-primary</title>
    <g id="Page-1" stroke="none" stroke-width="1" fill="none" fill-rule="evenodd">
        <g id="kclea---concept-4-copy" transform="translate(-161, -437)">
            <g id="kclea-logo-primary" transform="translate(161, 437)">
                <g id="Group" transform="translate(236, 32)">
                    <rect id="Rectangle" fill="#E2231A" x="-78" y="0" width="396" height="142"></rect>
                    <text id="King’s-College-Londo" font-family="Urbanist-Black, Urbanist" font-size="35.5041321" font-weight="800" line-spacing="35.0297519" fill="#FFFFFF">
                        <tspan x="17.4261347" y="49.4685958">King’s College</tspan>
                        <tspan x="246.392282" y="51.031003" font-family="Urbanist-Medium, Urbanist" font-weight="400"> </tspan>
                        <tspan x="18.2604818" y="86.0607548" font-family="Urbanist-Medium, Urbanist" font-weight="400">London Engineers’</tspan>
                        <tspan x="18.2604818" y="121.090507" font-family="Urbanist-Medium, Urbanist" font-weight="400">Association</tspan>
                    </text>
                </g>
                <g id="Group" transform="translate(0, 0)">
                    <g transform="translate(112.6993, 103) scale(-1, 1) translate(-112.6993, -103)">
                        <g id="fi_484613" transform="translate(141.2464, 63.2835)" fill="#E2231A">
                            <path d="M29.4820386,12.457263 L26.0235158,11.6063912 C25.8156358,10.9505194 25.5482185,10.3145012 25.2255628,9.70611278 C25.7448506,8.84139654 26.8361324,7.02141571 26.8361324,7.02141571 C27.0448957,6.6736558 26.9896573,6.22833695 26.7032776,5.94184594 L24.2050662,3.44266403 C23.9186865,3.15528933 23.4744239,3.10008841 23.1259157,3.30975765 L20.4379035,4.92095293 C19.8331669,4.60076403 19.2008701,4.33583496 18.5496109,4.12958264 L17.6990695,0.669716185 C17.6006651,0.27618134 17.247858,0 16.8424036,0 L13.3090322,0 C12.9035779,0 12.5498874,0.27618134 12.4524252,0.669657272 C12.4524252,0.669657272 11.8632355,3.08447663 11.6027083,4.12869895 C10.908283,4.34873677 10.237178,4.63440301 9.59793226,4.9830466 L6.81075002,3.30975765 C6.46224182,3.10262165 6.0188626,3.15617302 5.73159951,3.44266403 L3.23338816,5.94184594 C2.94700841,6.22833695 2.89177003,6.6736558 3.10053339,7.02141571 L4.82411196,9.90117174 C4.54633008,10.4491749 4.31342201,11.0195648 4.1279789,11.6037991 L0.669456099,12.457263 C0.276074084,12.5556467 0,12.9085909 0,13.3142028 L0,16.8489469 C0,17.2545588 0.276074084,17.6083867 0.66939721,17.7058867 L4.12880336,18.5567586 C4.33845006,19.2221152 4.61099077,19.8685021 4.94141989,20.4889675 L3.39904439,23.0606117 C3.19028103,23.4083716 3.2455194,23.8536904 3.53189915,24.1401815 L6.0301105,26.6393634 C6.3156658,26.9250296 6.76075281,26.9793468 7.10926101,26.7722697 C7.10926101,26.7722697 8.83884631,25.7349991 9.6859721,25.2275277 C10.2993065,25.5546093 10.9410845,25.8247227 11.6027672,26.0343919 L12.4524841,29.4934336 C12.5498874,29.8870273 12.9035779,30.1631498 13.3090322,30.1631498 L16.8424036,30.1631498 C17.247858,30.1631498 17.6006651,29.8869684 17.6990106,29.4934925 L18.5487276,26.0344508 C19.2293727,25.8187136 19.8849308,25.5399401 20.5086298,25.2016651 C21.3790169,25.7237468 23.1258568,26.7722697 23.1258568,26.7722697 C23.4734817,26.9802305 23.9186276,26.9267381 24.2050074,26.6393634 L26.7032187,24.1401815 C26.9895985,23.8536904 27.0448368,23.4083716 26.8360735,23.0606117 L25.2479408,20.4138542 C25.5610564,19.8192513 25.8207592,19.1970775 26.0234569,18.5567586 L29.4819797,17.7058867 C29.8754207,17.607503 30.1514358,17.2545588 30.1514358,16.8489469 L30.1514358,13.3142028 C30.1514358,12.9085909 29.8754207,12.5556467 29.4820386,12.457263 Z M15.0757179,21.2673771 C11.6665445,21.2673771 8.89231799,18.4920727 8.89231799,15.0815749 C8.89231799,11.671077 11.6665445,8.89577269 15.0757179,8.89577269 C18.4848913,8.89577269 21.2591179,11.671077 21.2591179,15.0815749 C21.2591179,18.4920727 18.4848913,21.2673771 15.0757179,21.2673771 Z" id="Shape" fill-rule="nonzero"></path>
                        </g>
                        <g id="fi_484613" transform="translate(93.9501, 13.0116)" fill="#E2231A">
                            <path d="M59.5421565,25.1587861 L52.5572967,23.4403587 C52.1374606,22.115755 51.5973824,20.8312474 50.9457445,19.6025415 C51.9945022,17.8561538 54.1984634,14.1805062 54.1984634,14.1805062 C54.6200835,13.4781676 54.5085237,12.5787982 53.9301489,12.0001987 L48.8847416,6.95283128 C48.3063668,6.37244709 47.4091307,6.26096287 46.7052808,6.68441251 L41.2765501,9.93839514 C40.0552195,9.29173911 38.7782279,8.75668628 37.4629396,8.34013748 L35.7451796,1.35256406 C35.5464413,0.557778001 34.8339093,0 34.0150504,0 L26.8790259,0 C26.0601671,0 25.345851,0.557778001 25.1490157,1.35244508 C25.1490157,1.35244508 23.9590836,6.22943319 23.4329207,8.33835278 C22.030454,8.78274289 20.675085,9.35967666 19.3840593,10.0638 L13.7550442,6.68441251 C13.0511943,6.26607901 12.1557421,6.37423178 11.5755833,6.95283128 L6.53017608,12.0001987 C5.95180129,12.5787982 5.84024144,13.4781676 6.26186156,14.1805062 L9.74281434,19.9964841 C9.18180388,21.1032356 8.71142093,22.2551995 8.33689857,23.4351236 L1.35203879,25.1587861 C0.557561386,25.3574826 0,26.0702915 0,26.8894685 L0,34.0282654 C0,34.8474423 0.557561386,35.5620359 1.35191985,35.7589477 L8.33856364,37.4773751 C8.76196777,38.8211347 9.31239313,40.1265827 9.97973036,41.3796795 L6.8647367,46.5733922 C6.44311658,47.2757309 6.55467643,48.1751003 7.13305123,48.7536998 L12.1784585,53.8010672 C12.7551682,54.378001 13.6540694,54.4877005 14.3579193,54.069486 C14.3579193,54.069486 17.8510033,51.974606 19.5618652,50.9497127 C20.8005601,51.6102894 22.0967001,52.1558125 23.4330396,52.5792621 L25.1491346,59.5651698 C25.345851,60.3600748 26.0601671,60.9177339 26.8790259,60.9177339 L34.0150504,60.9177339 C34.8339093,60.9177339 35.5464413,60.3599559 35.7450607,59.5652888 L37.4611556,52.5793811 C38.8357918,52.1436765 40.1597623,51.5806634 41.4193895,50.8974805 C43.1772303,51.9518808 46.7051619,54.069486 46.7051619,54.069486 C47.4072278,54.4894852 48.3062479,54.3814514 48.8846227,53.8010672 L53.9300299,48.7536998 C54.5084047,48.1751003 54.6199646,47.2757309 54.1983445,46.5733922 L50.9909393,41.2279801 C51.62331,40.0271154 52.1478078,38.7705682 52.5571777,37.4773751 L59.5420375,35.7589477 C60.3366339,35.5602512 60.8940763,34.8474423 60.8940763,34.0282654 L60.8940763,26.8894685 C60.8940763,26.0702915 60.3366339,25.3574826 59.5421565,25.1587861 Z M30.4470382,42.9517616 C23.5618449,42.9517616 17.9589952,37.3467352 17.9589952,30.4588669 C17.9589952,23.5709987 23.5618449,17.9659723 30.4470382,17.9659723 C37.3322315,17.9659723 42.9350812,23.5709987 42.9350812,30.4588669 C42.9350812,37.3467352 37.3322315,42.9517616 30.4470382,42.9517616 Z" id="Shape" fill-rule="nonzero"></path>
                        </g>
                        <g transform="translate(22.4143, 0)" fill="#000000">
                            <path d="M50.1116864,18.0819211 C47.2029596,20.1690928 43.1201005,22.944694 41.2784981,22.944694 C40.9137248,22.944694 40.7966663,22.8346872 40.7115328,22.7311862 C39.9595206,21.8038172 40.162895,18.5521114 41.3175176,13.0701068 C41.4316201,12.5271701 41.145477,11.9812762 40.6364499,11.7665856 C40.1274227,11.5507121 39.5362181,11.7275509 39.2276092,12.1865039 C35.254123,18.1132672 33.4343951,19.3564621 32.6096647,19.3564621 C31.4396707,19.3564621 30.2507582,15.990018 29.0707138,9.34939356 C28.9767123,8.81946842 28.5297616,8.43326182 27.9988598,8.40250723 L27.9988598,8.39600146 C27.9876269,8.39600146 27.9769852,8.39836719 27.9657524,8.39836719 C27.9545195,8.39836719 27.9421042,8.39600146 27.9314625,8.39600146 L27.9314625,8.40250723 C27.4023343,8.43326182 26.9565661,8.81946842 26.8607909,9.34939356 C25.6795641,15.990018 24.4894692,19.3564621 23.3206576,19.3564621 C22.495336,19.3564621 20.6767905,18.1126757 16.7038955,12.1865039 C16.3958779,11.7275509 15.8046732,11.5507121 15.2944636,11.7665856 C14.7848452,11.9812762 14.4987022,12.5271701 14.6133959,13.0701068 C15.7674273,18.5521114 15.9725753,21.8038172 15.2187894,22.7311862 C15.1354296,22.8352787 15.0165975,22.944694 14.6524154,22.944694 C12.810813,22.944694 8.72795387,20.1696843 5.81804471,18.0819211 C5.35808751,17.7513094 4.72727218,17.8051299 4.32820906,18.2055309 C3.92855473,18.6041576 3.87593752,19.235218 4.2058297,19.6959454 C10.8586553,28.2078679 9.60648394,37.9771799 9.60648394,37.9771799 C9.58224455,38.1126183 9.56923805,38.251014 9.56923805,38.3965068 C9.56923805,40.7965472 12.9284627,41.7463907 15.8543344,42.3058876 C19.0781732,42.9239364 23.3242048,43.2681512 27.8356873,43.2799799 C27.8788453,43.2811628 27.9225944,43.2811628 27.9657524,43.2799799 C28.0089103,43.2811628 28.0520682,43.2811628 28.0964086,43.2811628 C32.6067087,43.2675598 36.8533315,42.923345 40.0759879,42.3058876 C43.0024508,41.7463907 46.3622666,40.7947729 46.3622666,38.3965068 C46.3622666,38.251014 46.3492601,38.1132098 46.3250208,37.9771799 C46.3250208,37.9771799 45.0734406,28.2060936 51.7250838,19.6959454 C52.0555672,19.2358095 52.0035412,18.6041576 51.6038869,18.2055309 C51.2024589,17.8063128 50.572826,17.7519008 50.1116864,18.0819211 Z" id="Shape" fill-rule="nonzero"></path>
                            <ellipse id="Oval" cx="27.9651611" cy="3.49774251" rx="3.49638415" ry="3.49774251"></ellipse>
                            <ellipse id="Oval" cx="13.2069201" cy="7.72354065" rx="2.91345639" ry="2.91458828"></ellipse>
                            <ellipse id="Oval" cx="42.4810083" cy="7.72354065" rx="2.91345639" ry="2.91458828"></ellipse>
                            <ellipse id="Oval" cx="1.96398176" cy="16.0278698" rx="1.96398176" ry="1.96474478"></ellipse>
                            <ellipse id="Oval" cx="53.9048552" cy="16.0278698" rx="1.96398176" ry="1.96474478"></ellipse>
                        </g>
                        <g id="Asset-1" transform="translate(0, 29.4694)" fill="#000000">
                            <path d="M26.0438348,94.8849056 C25.2402956,97.4369549 24.8297282,100.212972 25.1288559,102.882898 C25.2051041,103.242425 25.0643382,103.87307 24.636175,103.755192 C18.7650607,96.6471752 17.3398052,86.0381944 21.0173163,77.5569036 C19.2460111,78.1227159 17.7093159,82.378096 16.6828973,84.0401697 C14.8998616,84.2287738 16.2019469,75.3997442 16.6946278,74.0323644 C17.8852733,69.7651966 20.4835787,66.0402655 23.3282244,62.7161182 C24.3487778,61.5196609 25.1933736,60.2230077 25.5042318,58.6375545 C26.4133454,54.4823703 20.0730112,57.500036 18.5304507,58.708281 C15.5391737,60.4646567 16.9996207,63.8123796 15.216585,63.211204 C14.03767,62.969555 12.8939464,62.6041345 11.9789675,61.7554161 C11.8557973,61.6434324 11.7619533,61.4607221 11.4628256,61.513767 C12.4657832,64.5785837 9.59767643,63.2701428 8.36597413,61.9793834 C5.33950562,58.8379463 7.42166903,53.9990723 5.69728581,52.7967211 C1.35113627,49.9028269 4.47144876,47.0325082 1.66199447,44.7633651 C1.24556179,44.4568834 0.958164586,43.9676915 0.635575888,43.5433323 C-3.51702044,37.5669398 14.0024785,32.2742371 14.9350531,27.5001957 C15.7972447,23.7811586 19.855997,21.8184971 22.4660328,19.3489621 C24.1024373,18.0817783 25.0526077,17.7635089 24.1141678,15.529729 C23.1464017,11.8460551 24.5130047,7.81464242 26.7359341,4.89127881 C27.2168846,4.70267471 27.0995796,5.52192378 27.1230406,5.79893606 C27.4456293,15.1584147 27.557069,4.21937669 36.8065667,1.30190696 C38.6423897,0.665368115 33.8270202,7.11916479 36.4077298,5.22133599 C39.921014,2.30976014 44.18505,1.02489469 48.5605258,0.14670683 C49.1822422,-0.0772605435 51.7629518,-0.171562595 50.3494268,0.824502827 C45.0296459,4.70267471 48.0150577,2.87557245 51.8743915,2.94040511 C57.2059029,2.65749896 62.4377051,3.4060215 67.2765355,5.74589116 C70.1563728,7.0071811 63.7163294,7.12505866 63.0300952,7.8205363 C66.4143439,8.62210374 70.0566636,9.37062627 73.1476498,11.3391816 C76.8192957,13.6083247 80.5730551,16.7969129 82.4088781,20.6043582 C82.2211901,21.2880481 77.7929271,19.1662519 76.660934,19.260554 C83.8517293,24.9894036 89.5527514,33.7064495 90.9017587,42.8419608 C89.7521699,42.6592506 84.5555592,37.0423846 85.1772756,38.7692909 C89.8694749,45.0757406 90.3269643,53.2328681 94.3387946,59.8870567 C96.4796105,63.5 88.5204676,57.936183 87.728659,57.258387 C85.8400488,55.8910072 87.728659,58.4017993 88.1920136,58.9145667 C91.1832906,62.4803631 94.7669578,65.2681675 98.9899371,67.2190412 C113.359797,73.6021113 129.33087,70.3310089 144.457348,71.4213764 C165.918294,71.3565437 176.921501,85.4959576 189.73707,100.266016 C196.124327,106.931993 207.702328,111.41134 215.180521,103.973266 C227.808402,90.5293296 210.593896,74.8398257 198.78715,68.3624536 C193.62573,65.3801512 190.335326,60.4587628 185.062467,57.6945339 C177.748501,52.8202966 182.651849,43.7908752 180.780835,36.9657642 C180.599012,34.8203925 175.314423,31.8852411 180.505168,32.9932903 C188.30595,34.1131271 193.895532,41.5335198 193.942454,49.2898636 C194.124277,52.6847374 192.259127,56.3919869 195.14483,59.0854892 C198.341391,62.727906 202.933881,64.6434164 206.904654,67.27798 C213.432676,71.2858172 219.426961,76.519581 222.93438,83.4743574 C229.597303,95.4094608 222.089784,111.983046 208.32991,113.733528 C193.801688,115.819961 182.599062,103.725723 173.795323,93.7886443 C178.716267,108.375993 179.549133,126.694166 193.619865,136.31887 C199.232909,139.849303 198.370717,159.582007 198.716767,166.247983 C198.599462,169.837355 198.194759,175.130058 193.889667,175.902156 C188.7869,176.432605 183.596155,175.955201 178.464062,176.084866 C177.578409,176.084866 176.675161,176.126123 175.924409,175.507266 C175.707395,175.33045 175.513841,175.430646 175.320288,175.548523 C172.938997,176.74498 171.877387,174.234188 172.358337,172.224376 C175.296827,159.652734 186.20619,167.191004 186.358687,161.415003 C185.83668,156.163558 184.857183,150.841386 182.446566,146.096814 C181.314573,143.745156 178.763189,142.831605 176.628239,141.641042 C168.821592,137.644992 161.032542,133.32478 154.674612,127.183358 C152.733214,125.904387 151.536703,122.745268 150.885661,126.705954 C149.049838,132.552681 149.495597,138.658739 151.34315,144.452422 C151.70093,146.055556 151.888618,147.806038 150.856334,149.208781 C144.908972,158.126219 138.574503,166.813796 131.606587,174.959135 C128.96136,177.499397 118.456699,175.519054 114.263046,176.114336 C112.392031,176.114336 113.160379,175.200784 111.142733,176.09076 C104.831725,175.843217 111.324556,162.752914 119.043224,164.043673 C123.44216,165.24013 126.263345,163.377665 128.61531,159.711672 C130.891027,156.346268 133.055304,152.715639 133.835382,148.678332 C133.888169,140.715703 121.301344,134.892551 121.113657,118.265921 C109.570846,122.226607 96.6145113,126.499669 83.7637506,125.886705 C82.5907008,125.810085 82.3971476,126.063522 82.5261831,127.159783 C82.6552185,128.226575 82.643488,129.293367 82.643488,130.366053 C82.6317575,140.309025 82.6845448,150.251998 82.6376228,160.19497 C82.760793,162.564309 80.2797927,163.607526 79.6874025,165.723428 C78.7313669,168.26369 77.8515796,170.839314 76.8368915,173.361894 C74.7547281,178.595658 63.4758542,175.583886 58.6018322,176.344197 C57.7220448,176.344197 56.8187965,176.467968 56.0152574,175.937519 C55.6985339,175.778384 55.3407537,176.155593 55.0474913,176.232213 C51.8802568,177.016099 52.0914058,172.507282 53.2527251,170.709649 C57.7982931,162.511265 64.1855493,169.377633 66.4495354,163.743085 C68.725252,150.929794 63.094613,137.892535 59.1648961,125.874917 C58.8833642,124.831701 58.1853995,126.252126 57.4639739,125.774721 C48.7951358,123.175521 41.3286738,117.529186 36.2669638,110.120581 C37.3989569,117.9005 46.8947951,123.552729 53.721945,126.210868 C54.5313494,126.346428 54.8773991,126.994754 53.909633,127.183358 C46.3258659,129.43482 38.5133542,130.66664 30.7067077,131.815947 C29.5923104,132.016339 29.4515444,132.175473 29.416353,133.289416 C29.3342395,135.564453 29.8034594,138.140078 31.8093746,139.483882 C35.7332262,141.641042 39.0940139,146.220585 37.2229994,150.835492 C35.9443751,154.20679 32.5718569,155.303051 29.2462607,155.026039 C28.0204237,154.9671 26.9998703,155.880652 25.7505723,155.397354 C21.9557562,154.737239 19.6507133,151.2127 19.1932239,147.564389 C18.489394,141.811964 17.5626846,136.094902 16.4365568,130.40731 C14.5655424,120.493807 26.8356434,119.138215 33.2111691,115.513479 C33.8563465,115.248255 34.6481551,114.935879 33.8622117,114.352385 C28.4661826,109.442785 26.4133454,101.969347 26.0203738,94.8613301 L26.0438348,94.8849056 Z" id="Path"></path>
                        </g>
                    </g>
                </g>
            </g>
        </g>
    </g>
</svg>