<?xml version="1.0" encoding="UTF-8"?>
<svg width="927px" height="482px" viewBox="0 0 927 482" version="1.1" xmlns="http://www.w3.org/2000/svg" xmlns:xlink="http://www.w3.org/1999/xlink">
    <title>Group@2x</title>
    <g id="Page-1" stroke="none" stroke-width="1" fill="none" fill-rule="evenodd">
        <g id="kclea---concept-6-copy-2" transform="translate(-496, -245)">
            <g id="Group" transform="translate(806, 245)">
                <g>
                    <g transform="translate(-309.537, -0)" fill="#042049" fill-rule="nonzero">
                        <g id="logo-kcla-blue-bg">
                            <path d="M51.9901323,184.483433 C53.682625,180.347074 54.2858005,170.03327 47.7859086,170.186803 C45.6342824,171.90276 46.8856466,177.854421 44.5089548,179.001403 C42.2492971,178.098267 44.2838893,166.565231 45.2921828,164.704772 C42.0242316,152.900794 40.5748098,175.542395 38.9903486,176.870004 C35.6413738,175.804304 40.0976709,167.974121 32.8415589,170.755778 C26.7107745,173.320682 26.0715884,179.489096 28.1331885,185.45882 C31.5901947,183.246138 35.3352847,181.692746 39.2964377,182.153345 C41.3310299,182.812633 43.4826561,181.078614 45.0671173,182.72232 C48.299058,181.972718 49.721472,185.612353 51.9631245,184.52859 M156.141447,92.5894238 C158.158034,89.1936353 161.777087,86.6196999 162.191208,82.1582119 C161.200919,80.6590074 160.849817,78.8617683 158.869241,78.1031347 C156.042418,79.9094052 153.665726,77.4890028 151.991239,81.0292929 C150.424783,80.5867566 135.336391,94.0254088 132.176471,94.4318197 C129.898809,96.2380901 125.946658,100.753766 125.469519,103.616705 C122.696712,105.865512 132.230487,113.054468 129.97083,115.492933 C131.033139,116.531539 130.015843,121.119466 132.320513,119.105474 C135.363399,117.985586 140.494893,114.761394 139.675654,111.058539 C139.072479,107.19312 135.480433,103.833457 141.41316,101.539494 C141.41316,100.356387 153.494676,93.2758066 156.123442,92.5894238 M40.8899015,205.481328 C40.3137338,203.0248 38.1891154,204.903321 36.9197459,205.309732 C36.8117145,207.675946 40.2777233,207.558539 40.8899015,205.481328 M61.5959282,215.98479 C61.1547998,217.438838 60.6236452,217.556246 59.3542757,217.52012 C57.0496049,217.438838 59.039184,212.24581 55.8342512,213.004444 C54.2317848,213.392792 51.4679804,217.122741 49.8475087,215.822226 C49.4423908,216.011884 45.45423,218.730321 44.6890073,217.438838 C42.8884832,218.089095 39.1613984,215.181 38.0450735,216.598922 C32.36442,219.001262 27.647047,215.027467 23.6948967,211.297518 C15.2504388,210.015066 21.4892547,214.006924 17.7081542,216.002853 C15.4935096,216.156386 16.0246642,211.080766 16.1056877,209.861533 C16.3667637,205.824519 18.3383376,206.971501 21.3902259,206.041271 C22.5335587,205.689049 22.2904879,206.754748 23.1907499,207.061814 C23.9942108,206.769104 24.8943891,207.00656 25.4504076,207.657884 C27.6020339,208.831959 32.5174646,213.483106 35.3082769,213.817266 C41.8531819,211.24333 32.0043152,207.919793 33.1026349,203.96406 C34.7231066,200.351519 39.5845215,201.254655 42.348326,201.751379 C42.7354386,201.9591 42.9244937,202.284229 43.3566194,202.284229 C48.1640187,206.122554 39.6295346,208.913241 41.376043,213.5102 C42.4743627,215.31647 50.6307367,212.706409 51.3689515,210.692418 C51.7740694,210.692418 52.8813917,208.886147 53.4395542,210.10538 C58.7240923,207.269535 62.1991038,210.10538 61.5419125,215.948665 M54.843963,202.979643 C53.9437009,203.304772 53.0434389,201.173373 52.9444101,200.496021 C51.026852,199.42129 50.0635716,202.419699 47.9569584,201.805567 C48.037982,199.385165 47.9569584,199.276789 49.982548,197.289891 C53.2595018,192.981936 59.5793413,200.75793 54.843963,202.952549 M28.8984112,200.243143 C27.7100653,201.01984 27.5300129,199.592886 26.2516408,199.918015 C23.7669176,202.699671 24.7392006,202.546138 23.7038993,199.321945 C24.4511168,193.298033 29.5736077,193.261908 29.780668,199.321945 C29.1324793,200.08961 30.7619536,199.060036 28.880406,200.225081 M27.836102,227.156573 C27.836102,224.6007 30.5368881,226.921758 30.2037912,228.764154 C32.7245249,230.200139 34.9841826,231.681281 37.6849686,232.223162 C38.5852307,232.692792 40.0526578,235.022881 41.4750718,234.372624 C42.1322631,232.855356 44.9770911,231.003929 45.3281933,229.242816 C45.6612902,227.255918 47.8579296,228.014552 48.9292414,226.379877 C51.2879279,226.099905 51.5039908,226.497284 51.6300275,228.709966 C51.4859856,229.613101 49.910527,229.315066 50.2616292,230.516236 C48.7401864,231.265838 45.9834096,236.043424 40.592815,239.15924 C38.5222123,240.188815 37.8110053,238.256105 36.0915049,237.35297 C36.0915049,236.774963 34.4350227,235.040944 33.1296428,234.788066 C31.0320322,233.460457 25.7564967,229.884042 27.8451046,227.093354 M195.221822,94.1879732 C191.845839,91.875947 187.07445,91.9301351 183.15831,91.1895642 C183.15831,91.1895642 158.883564,90.7137656 152.891929,98.1526965 C151.82962,99.0558317 149.173419,99.2364991 148.975361,100.356387 C147.552947,101.142114 145.275284,101.539494 145.140245,103.860551 C144.492056,110.435376 147.444916,107.003462 143.51077,116.052877 C141.908304,119.376415 138.748384,118.762283 136.77681,121.851005 C135.444423,121.607159 114.945456,126.944688 107.185197,133.537575 C107.268255,133.490535 101.792628,139.055731 98.2275903,138.604164 C97.0392444,137.204304 94.8516077,135.687037 93.9603482,134.494898 C93.1951255,134.494898 89.4680407,129.735376 89.0989333,129.301871 C88.6217944,129.301871 86.8662834,127.396256 86.6592232,127.071127 C81.5457348,116.567664 80.0603025,107.05765 80.1143182,94.9737008 C81.7128121,83.8256626 84.2639498,72.83617 87.7395376,62.1266725 C88.5767813,61.729293 87.658514,56.2562935 88.7388285,55.8860081 C89.342004,55.8860081 89.8731586,52.4992509 89.7561246,52.1018714 C90.2242608,48.6067381 90.7734207,44.0910619 91.8267272,40.966214 C91.7052873,38.1265737 91.7624171,35.2820773 91.997777,32.4496488 C93.1231046,28.8371079 92.6009526,25.405194 92.8980391,21.0520822 C91.8447325,21.0520822 92.2318451,18.2613944 91.8897456,17.9543284 C92.0067796,17.9001403 90.0892215,15.2449227 89.4590381,15.0281702 C88.0636319,13.2218998 86.947307,7.93855867 83.7063637,9.12166583 C81.7347899,12.7974262 77.8366553,5.66265789 75.4059478,6.41226014 C74.3256333,3.61254092 70.634559,0.343191388 67.9157677,0 C66.9074742,1.65273747 68.4019092,4.2989237 68.9870795,5.4910622 C71.1026953,8.24562465 72.0209625,8.15531113 69.1311214,11.6504445 C67.9157677,12.1471688 66.5473694,9.3926064 66.5023563,11.6504445 C69.6442708,14.0527842 68.9780769,18.7219933 71.9579442,20.7721103 C78.5928754,32.711558 80.1953418,19.9592886 86.0110345,29.1802993 C88.7118206,38.4825922 89.1979621,40.5236778 87.1993804,50.295601 C86.9022939,50.0969112 86.9112965,50.8826389 86.6052074,50.5304161 C86.3793951,54.1546262 85.4368164,57.6975071 83.8324004,60.9525967 C84.3545524,63.3368737 82.2659445,68.3221802 82.2839497,71.2122129 C81.9868632,71.266401 80.546444,72.8197936 81.5097243,72.9372012 C80.7535042,73.5784272 81.6177558,77.0374351 80.3303811,77.597379 C80.5554466,77.8502569 79.5291479,81.8872713 79.0970221,82.1130551 C78.3137941,82.5917168 78.8179409,85.9784739 78.4218256,86.6287313 C78.1247391,88.236312 77.1524561,90.7921847 77.0624299,92.6616746 C76.3422203,95.1904533 76.4322465,105.648759 76.9994116,108.014974 C77.0444247,110.471501 80.2673627,119.015161 81.5007217,120.776274 C82.4640021,124.741038 85.1017699,131.758399 88.702818,134.377491 C89.1889595,134.242021 96.5350977,140.347215 96.598116,141.801263 C94.7975919,149.839166 92.4749159,157.425502 92.9970679,165.716283 C93.6632618,169.010933 94.5905317,174.503789 93.6632618,177.267383 C92.6999814,183.047448 93.7712932,190.209311 92.7629997,195.989376 C91.6376722,200.279269 91.808722,207.964949 88.1896686,211.17108 C87.1723725,211.658773 86.5601943,210.945296 86.1550764,212.742535 C83.4542903,216.174449 77.2604876,219.163826 86.1550764,219.516049 C87.9556005,224.031725 84.2105104,226.741131 81.5547375,229.531819 C77.1254483,230.516236 80.1413261,231.780626 81.4106955,234.047495 C82.4883966,235.888048 83.7063637,245.513933 75.3609347,244.794804 C75.7390447,244.270986 71.7058708,244.225829 71.9219337,245.029619 C69.6802813,244.704491 70.3824856,253.157836 67.9427755,253.681655 C67.8887598,253.853251 68.3658987,256.093026 67.5376576,255.487925 C63.6215178,257.032287 65.7371336,254.124191 64.9809134,252.146325 C67.2315685,249.030508 66.178262,236.48596 73.0832717,241.660925 C73.7224578,242.672436 73.1552927,242.473747 74.3166307,242.130555 C80.3213785,239.321805 77.4675478,238.039353 74.6677329,233.47852 C72.3630621,232.150911 73.5694132,229.053157 73.1282848,226.921758 C74.1005678,225.115488 75.5139792,227.246887 76.918388,226.163124 C79.5381505,224.790359 80.5194361,223.66144 78.1607496,221.141692 C77.2604876,218.974168 74.5597015,219.461861 74.6767355,216.860832 C72.5881276,211.378801 76.2972072,214.024987 78.1067339,211.351707 C77.4150366,210.330549 76.1472326,209.871371 74.9648194,210.213756 C71.795897,209.066774 67.0965292,206.70056 66.2502829,202.988674 C64.161675,198.14787 69.1491267,199.15035 68.3298882,194.959802 C67.2855842,189.297144 63.1983946,193.243845 59.8494199,191.256948 C51.5039908,183.011323 38.5042071,185.386569 28.6463378,187.445717 C26.5397247,187.644407 24.2350539,190.019652 22.8396477,190.904725 C21.4172337,190.633784 19.8147673,191.80786 18.4643743,191.699484 C17.1139812,191.591108 14.2691532,189.640336 13.1888388,191.699484 C10.4880527,194.896583 15.601541,199.276789 13.7650065,202.148759 C12.2165558,207.56757 7.61621679,208.795834 4.26724203,213.049601 C2.46671797,214.106269 0.774225347,214.431398 0,216.662142 C2.64677037,218.983199 2.59275465,217.474963 5.51860625,217.565277 C8.45346048,222.478333 4.73537829,229.089283 4.21322631,234.020401 C3.56503765,234.28231 3.01587781,237.632942 2.7908123,238.138698 C2.86283326,239.177303 -0.693201764,243.09691 2.2596577,242.36537 C5.04593175,241.943737 7.46770646,240.221303 8.78655743,237.723255 C10.0019112,236.82012 11.6673959,243.846512 12.3876056,244.713522 C13.6389698,247.188113 14.9893628,249.454982 15.0883917,252.155356 C15.7815934,254.25063 16.312748,255.596302 17.0599655,257.510948 C17.6451358,259.561065 17.1229838,258.161206 16.3937716,259.615253 C17.8251882,259.109498 17.0779707,261.421524 16.5108057,261.701496 C16.5108057,263.056199 16.7988895,262.162095 16.1507008,262.776227 C16.1507008,262.550443 16.573824,264.103835 16.6278397,264.022553 C15.9436406,264.112867 16.312748,265.828824 17.4020651,265.512726 C16.9699393,265.630134 19.0585472,264.049647 18.8604896,264.510246 C20.2198852,264.004491 21.291197,261.909217 22.7406189,261.340242 C24.1630329,263.661299 22.9652525,266.493856 24.7927844,268.607192 C25.2470651,271.21463 34.3269913,280.16158 34.831138,280.567991 C36.3975939,281.63369 41.4120535,289.183901 41.2410037,283.665744 C40.6445063,281.63369 46.5705549,275.302712 46.4535208,281.037621 C45.5463905,283.665744 51.6930459,285.833269 52.8723891,287.585351 C56.0683193,291.270143 56.5634635,287.24216 57.9318617,284.749507 C59.894433,282.292979 58.399998,276.765791 61.4068732,275.718154 C61.4068732,275.718154 63.0633553,287.982731 60.5156138,288.091107 C60.7316767,290.800513 58.0545788,292.922881 55.5968635,293.085445 C51.2035847,293.013194 52.3856775,292.320199 51.026852,290.764387 C50.0635716,289.44581 44.7250177,285.616517 44.4009234,288.262703 C42.4743627,289.635468 42.08725,294.72012 39.1433931,293.085445 C36.1815311,288.262703 19.3916442,305.044854 17.4020651,307.049814 C16.075679,308.386454 16.9239112,310.803639 19.9467615,314.301367 C21.0257164,318.119751 55.0960363,304.47398 56.3203927,303.778566 C61.4068732,301.767751 62.2628098,300.021118 65.5480785,298.775197 C66.5923825,298.161065 72.318049,296.25545 73.101277,294.575618 C75.0098325,291.288206 64.6028034,289.653531 68.3929065,287.486007 C69.2931686,287.486007 74.9378115,290.44829 72.5521171,287.314411 C72.128994,285.50814 69.2031424,285.10173 69.0861083,282.943236 C68.8160297,277.813428 77.8096474,287.314411 77.1164456,287.784041 C78.1607496,294.0518 86.3171236,296.92377 87.6765193,302.577396 C93.7262801,307.653016 91.8537351,320.36916 88.7928442,328.009684 C87.7395376,329.554046 86.9778968,332.047798 85.4348668,334.9277 C84.0934764,338.224144 95.9679326,336.815253 98.1825772,336.183058 C100.604282,335.081233 106.690053,325.264153 106.311943,325.146746 C109.043641,320.727395 112.996637,300.340257 111.992597,297.86303 C111.218371,295.81541 110.76824,293.844079 111.218371,291.84815 C111.101337,284.496629 110.318109,275.799437 109.678923,268.167944 C109.399842,264.410901 109.921994,258.7934 108.715643,255.361486 C108.058452,254.268693 107.122179,255.460831 106.167901,254.64801 C105.708768,254.259661 103.728191,253.365558 103.152024,254.033878 C101.567562,254.377069 100.451237,252.1102 101.3515,249.780111 C101.93667,248.615066 102.629872,249.418857 103.719189,249.500139 C104.808506,249.581421 104.403388,251.008375 105.600736,251.107719 C106.293938,251.170939 107.977428,250.881936 107.851391,252.18245 C109.732939,251.757977 111.083332,250.430368 112.127636,252.895927 C113.838134,252.823676 114.162228,254.702198 114.207241,255.822085 C113.306979,258.432146 114.540338,262.577537 114.504328,265.124378 C114.89144,268.14085 120.447601,266.677771 120.744688,265.512726 C124.280418,262.776227 148.975361,212.04654 147.099685,179.434908 C147.450787,177.863452 145.626386,166.176882 142.997621,172.932334 C141.107071,174.801824 138.865418,176.291997 137.821114,179.064622 C137.533031,180.112259 133.706917,181.177959 133.71592,179.434908 C134.553163,177.827327 133.949988,174.919231 134.526155,173.401964 C135.561457,172.498829 138.523319,172.245951 138.63135,170.692559 C142.691532,169.473326 144.933184,164.650584 147.498931,161.778614 C148.237146,161.128356 154.322917,152.512446 154.692025,152.223443 C157.536853,148.963125 159.193335,143.345624 160.867822,139.742114 C161.02987,139.308609 170.338579,112.142302 169.951466,111.952643 C174.902908,104.727561 179.854349,100.293167 189.10004,103.300608 C190.054318,106.913149 195.230824,105.106878 197.355443,105.269442 C201.604679,100.202854 201.046517,97.6018243 195.473895,94.1879732" id="Shape"></path>
                        </g>
                        <path d="M101.836249,348.594689 C103.384344,348.594689 104.731423,349.651396 105.107148,351.157113 L108.354664,364.395028 C110.841285,365.184177 113.255505,366.197831 115.564494,367.422917 L125.827795,361.258267 C127.15846,360.456045 128.854732,360.667251 129.94818,361.766785 L139.486787,371.328991 C140.580234,372.425144 140.791144,374.128994 139.994049,375.45957 C139.994049,375.45957 138.583568,377.816799 137.013389,380.439921 L136.717414,380.934361 L136.121565,381.929684 C135.278953,383.33713 134.457458,384.708949 133.844613,385.731583 C135.076569,388.059358 136.097615,390.49285 136.891337,393.002304 L150.096581,396.257854 C151.598582,396.634283 152.652457,397.984695 152.652457,399.536621 L152.652457,413.061027 C152.652457,414.612953 151.598582,415.963365 150.096356,416.339794 L136.891113,419.595344 C136.117177,422.04529 135.125587,424.425811 133.930057,426.700842 L139.993824,436.827692 C140.790919,438.158268 140.58001,439.862118 139.486562,440.958271 L129.947955,450.520478 C128.854507,451.620012 127.154862,451.824681 125.82757,451.028995 C125.82757,451.028995 122.696269,449.145545 119.655673,447.317096 L119.163908,447.021379 C118.184002,446.432134 117.231957,445.859696 116.41769,445.370194 L116.022546,445.13266 L115.83454,445.019651 C113.453148,446.313936 110.950113,447.380561 108.351291,448.206001 L105.106924,461.44076 C104.731423,462.946252 103.384344,464.002959 101.836249,464.002959 L88.3452198,464.002959 C86.7971243,464.002959 85.4466723,462.946477 85.0747696,461.440534 L81.8304021,448.205775 C79.3039821,447.403553 76.8535616,446.370063 74.5117438,445.118604 C73.4934835,445.729866 72.1412889,446.542028 70.7663331,447.368017 L70.037999,447.805569 L69.5551471,448.095659 C66.9924616,449.63531 64.6734112,451.028995 64.6734112,451.028995 C63.342746,451.8213 61.6433261,451.613475 60.5530262,450.520478 L51.0144192,440.958271 C49.9209713,439.862118 49.7100616,438.158268 50.5071565,436.827692 L56.3962154,426.988236 C55.1345793,424.614251 54.0939713,422.141088 53.2935036,419.595344 L40.0848871,416.339794 C38.5831108,415.966746 37.5290117,414.612953 37.5290117,413.061027 L37.5290117,399.536621 C37.5290117,397.984695 38.5831108,396.634283 40.085112,396.257854 L53.2903557,392.992386 C53.9984099,390.757027 54.8876935,388.574638 55.9483132,386.477904 L49.3673894,375.45957 C48.5702945,374.128994 48.7812042,372.425144 49.8746521,371.328991 L59.4132591,361.766785 C60.5100797,360.670632 62.202979,360.465737 63.5336441,361.258267 L74.1755924,367.660496 C76.6163443,366.326539 79.1787404,365.233541 81.8301772,364.391647 C81.8473279,364.322762 81.8648516,364.252318 81.8827303,364.180389 L81.9941202,363.731595 C82.9939357,359.697939 84.8567341,352.051227 85.0569738,351.229041 L85.0745448,351.156888 C85.4466723,349.651396 86.7971243,348.594689 88.3452198,348.594689 Z M95.0907342,382.631112 C82.0739151,382.631112 71.481434,393.2498 71.481434,406.298824 C71.481434,419.347848 82.0739151,429.966535 95.0907342,429.966535 C108.107553,429.966535 118.700034,419.347848 118.700034,406.298824 C118.700034,393.2498 108.107553,382.631112 95.0907342,382.631112 Z M174.264555,291.569427 C175.339116,291.569427 176.274147,292.302906 176.534945,293.348051 L178.789103,302.536721 C180.51511,303.084483 182.190863,303.788078 183.793573,304.638432 L190.917511,300.35944 C191.841149,299.802603 193.018561,299.949205 193.777543,300.712411 L200.398458,307.349707 C201.15744,308.110566 201.303836,309.293238 200.750558,310.216815 C200.750558,310.216815 199.661508,312.036861 198.501967,313.9739 L198.11424,314.621577 C197.511394,315.628546 196.920024,316.616094 196.482126,317.3468 C197.337249,318.96255 198.045975,320.651679 198.596911,322.393535 L207.762904,324.65327 C208.80547,324.914556 209.536982,325.851901 209.536982,326.92912 L209.536982,336.31665 C209.536982,337.393868 208.80547,338.331213 207.762748,338.5925 L198.596755,340.852234 C198.059553,342.552785 197.371273,344.205147 196.541434,345.784286 L200.750402,352.813511 C201.30368,353.737088 201.157284,354.91976 200.398302,355.680619 L193.777387,362.317915 C193.018405,363.081121 191.838652,363.223186 190.917355,362.670886 C190.917355,362.670886 190.90734,362.664862 190.888008,362.653235 L190.802767,362.601964 C190.076137,362.164909 186.073189,359.757252 183.981017,358.499694 C182.328051,359.398081 180.59065,360.138444 178.786762,360.711396 L176.534789,369.897876 C176.274147,370.942864 175.339116,371.676343 174.264555,371.676343 L164.900194,371.676343 C163.825634,371.676343 162.888261,370.943021 162.630117,369.897719 L160.378144,360.71124 C158.624512,360.154403 156.923632,359.437039 155.298135,358.568379 C153.053029,359.916116 148.469174,362.670886 148.469174,362.670886 C147.545536,363.220839 146.365939,363.076584 145.609142,362.317915 L138.988227,355.680619 C138.229245,354.91976 138.082849,353.737088 138.636127,352.813511 L142.723827,345.983771 C141.848103,344.335946 141.125798,342.61928 140.57018,340.852234 L131.401846,338.5925 C130.359436,338.33356 129.627768,337.393868 129.627768,336.31665 L129.627768,326.92912 C129.627768,325.851901 130.359436,324.914556 131.402002,324.65327 L140.567995,322.386651 C141.059467,320.835049 141.676735,319.320215 142.41293,317.864835 L137.844994,310.216815 C137.291717,309.293238 137.438113,308.110566 138.197094,307.349707 L144.81801,300.712411 C145.579332,299.951552 146.754404,299.80933 147.678042,300.35944 L155.064806,304.80334 C156.758975,303.877416 158.537579,303.118747 160.377988,302.534374 C160.61304,301.590295 160.949037,300.224376 161.29001,298.833236 L161.417921,298.311151 L161.545173,297.79135 C162.114643,295.464353 162.629961,293.347894 162.629961,293.347894 C162.888261,292.302906 163.825634,291.569427 164.900194,291.569427 Z M169.582375,315.194709 C160.547171,315.194709 153.194743,322.565327 153.194743,331.622885 C153.194743,340.680442 160.547171,348.051061 169.582375,348.051061 C178.617579,348.051061 185.970007,340.680442 185.970007,331.622885 C185.970007,322.565327 178.617579,315.194709 169.582375,315.194709 Z" id="Combined-Shape"></path>
                    </g>
                    <g transform="translate(0, 71.418)">
                        <g id="KCLEA" transform="translate(3.831, 0)" fill-rule="nonzero">
                            <polygon id="Path" fill="#E31F13" points="0 223.27709 0 1.86582527 31.7190295 1.86582527 31.7190295 102.931361 32.3409713 102.931361 78.6756321 1.86582527 110.394662 1.86582527 67.1697096 90.4925254 118.479904 223.27709 84.8950496 223.27709 48.8224278 125.010293 31.7190295 157.040293 31.7190295 223.27709"></polygon>
                            <path d="M212.496767,160.150002 L212.496767,173.832721 C212.496767,180.67408 211.201055,187.15264 208.609631,193.268401 C206.018207,199.384161 202.442041,204.826152 197.881135,209.594372 C193.320229,214.362592 187.981896,218.146071 181.866135,220.944809 C175.750374,223.743547 169.168158,225.142916 162.119484,225.142916 C156.107381,225.142916 149.99162,224.31366 143.772203,222.655149 C137.552785,220.996637 131.955309,218.094242 126.979775,213.947964 C122.004241,209.801686 117.909791,204.463352 114.696425,197.932964 C111.48306,191.402575 109.876377,183.05819 109.876377,172.899808 L109.876377,50.999224 C109.876377,43.7432368 111.12026,37.0055345 113.608027,30.7861169 C116.095794,24.5666993 119.620131,19.1765375 124.181037,14.6156313 C128.741943,10.054725 134.183934,6.47855995 140.507008,3.88713597 C146.830083,1.29571199 153.826928,0 161.497543,0 C176.424145,0 188.552009,4.87187709 197.881135,14.6156313 C202.442041,19.3838514 206.018207,25.0331557 208.609631,31.5635441 C211.201055,38.0939325 212.496767,45.1944342 212.496767,52.8650492 L212.496767,65.3038843 L180.777737,65.3038843 L180.777737,54.7308745 C180.777737,48.5114569 179.015569,43.1212951 175.491232,38.5603888 C171.966895,33.9994826 167.198675,31.7190295 161.186572,31.7190295 C153.308643,31.7190295 148.073966,34.1549681 145.482542,39.0268452 C142.891118,43.8987223 141.595406,50.0663113 141.595406,57.5296124 L141.595406,170.723012 C141.595406,177.149743 142.994775,182.539905 145.793513,186.893498 C148.592251,191.24709 153.619614,193.423886 160.875601,193.423886 C162.94874,193.423886 165.177365,193.061087 167.561475,192.335488 C169.945585,191.609889 172.174209,190.417834 174.247349,188.759323 C176.113174,187.100811 177.668028,184.820358 178.911912,181.917964 C180.155795,179.015569 180.777737,175.387575 180.777737,171.033983 L180.777737,160.150002 L212.496767,160.150002 Z" id="Path" fill="#E31F13"></path>
                            <polygon id="Path" fill="#E31F13" points="217.575958 223.27709 217.575958 1.86582527 249.294987 1.86582527 249.294987 191.558061 312.111104 191.558061 312.111104 223.27709"></polygon>
                            <polygon id="Path" fill="#042049" points="317.086638 223.27709 317.086638 1.86582527 411.621785 1.86582527 411.621785 31.7190295 348.805668 31.7190295 348.805668 96.711943 403.536542 96.711943 403.536542 126.565147 348.805668 126.565147 348.805668 191.558061 411.621785 191.558061 411.621785 223.27709"></polygon>
                            <path d="M496.205864,145.845342 L480.65732,65.6148552 L480.035378,65.6148552 L464.486835,145.845342 L496.205864,145.845342 Z M417.841203,223.27709 L467.285572,1.86582527 L493.718097,1.86582527 L543.162467,223.27709 L511.443437,223.27709 L502.114311,175.698546 L458.889359,175.698546 L449.560232,223.27709 L417.841203,223.27709 Z" id="Shape" fill="#042049"></path>
                        </g>
                        <text id="King’s-College-Londo" font-family="Urbanist-SemiBold, Urbanist" font-size="51.8284796" font-weight="500" line-spacing="77.7427195" fill="#E31F13">
                            <tspan x="0" y="304.096552">King’s College London </tspan>
                            <tspan x="0" y="381.839271">Engineers’ Association</tspan>
                        </text>
                    </g>
                </g>
                <line x1="-55.7418639" y1="22.0686956" x2="-55.7418639" y2="468.074796" id="Line" stroke="#042049" stroke-width="3.85650888" stroke-linecap="square"></line>
            </g>
        </g>
    </g>
</svg>